<?xml version="1.0" encoding="utf-8"?>
<!-- Generator: Adobe Illustrator 22.0.1, SVG Export Plug-In . SVG Version: 6.00 Build 0)  -->
<svg version="1.1" id="Capa_1" xmlns="http://www.w3.org/2000/svg" xmlns:xlink="http://www.w3.org/1999/xlink" x="0px" y="0px"
	 viewBox="0 0 1166.8 298.3" style="enable-background:new 0 0 1166.8 298.3;" xml:space="preserve">
<style type="text/css">
	.st0{fill:#F2F1F3;}
	.st1{fill:none;}
	.st2{fill:#1D1D1B;}
</style>
<rect x="-0.2" y="0.2" class="st0" width="1167.2" height="298"/>
<g>
	<rect x="19.4" y="18.5" class="st1" width="1144.1" height="306.7"/>
	<path class="st2" d="M32.9,38.4v3.2H20.8v-3.2H32.9z"/>
	<path class="st2" d="M50,29.5l4.7,13.3c0.8,2.2,1.4,4.1,1.9,6.1h0.1c0.5-2,1.2-3.9,2-6.1l4.6-13.3h4.5l-9.3,23.7h-4.1l-9-23.7H50z"
		/>
	<path class="st2" d="M76.7,22.9c0,1.5-1,2.6-2.7,2.6c-1.5,0-2.6-1.2-2.6-2.6c0-1.5,1.1-2.7,2.7-2.7C75.7,20.2,76.7,21.4,76.7,22.9z
		 M71.9,53.3V29.5h4.3v23.7H71.9z"/>
	<path class="st2" d="M82.8,48.9c1.3,0.8,3.5,1.7,5.7,1.7c3.1,0,4.6-1.6,4.6-3.5c0-2.1-1.2-3.2-4.4-4.4c-4.3-1.5-6.3-3.9-6.3-6.7
		c0-3.8,3.1-7,8.2-7c2.4,0,4.5,0.7,5.8,1.5l-1.1,3.1c-0.9-0.6-2.6-1.4-4.9-1.4c-2.5,0-4,1.5-4,3.2c0,2,1.4,2.8,4.5,4
		c4.1,1.6,6.2,3.6,6.2,7.2c0,4.2-3.2,7.1-8.9,7.1c-2.6,0-5-0.6-6.7-1.6L82.8,48.9z"/>
	<path class="st2" d="M107.6,22.9c0,1.5-1,2.6-2.7,2.6c-1.5,0-2.6-1.2-2.6-2.6c0-1.5,1.1-2.7,2.7-2.7
		C106.6,20.2,107.6,21.4,107.6,22.9z M102.8,53.3V29.5h4.3v23.7H102.8z"/>
	<path class="st2" d="M135.7,41.2c0,8.8-6.1,12.6-11.8,12.6c-6.4,0-11.4-4.7-11.4-12.2c0-7.9,5.2-12.6,11.8-12.6
		C131.1,29,135.7,34,135.7,41.2z M116.9,41.5c0,5.2,3,9.1,7.2,9.1c4.1,0,7.2-3.9,7.2-9.2c0-4-2-9.1-7.1-9.1
		C119.1,32.2,116.9,36.9,116.9,41.5z M130.6,19.3l-6,7h-3.1l4.3-7H130.6z"/>
	<path class="st2" d="M141.2,36c0-2.5,0-4.5-0.2-6.4h3.8l0.2,3.9h0.1c1.2-2.3,3.9-4.5,7.8-4.5c3.3,0,8.4,2,8.4,10.1v14.2H157V39.6
		c0-3.8-1.4-7-5.5-7c-2.8,0-5,2-5.8,4.4c-0.2,0.5-0.3,1.3-0.3,2v14.3h-4.3V36z"/>
	<path class="st2" d="M167.3,33.5c0-1.8,1.2-3.1,2.9-3.1s2.8,1.3,2.9,3.1c0,1.7-1.1,3-2.9,3C168.5,36.5,167.3,35.2,167.3,33.5z
		 M167.3,50.8c0-1.8,1.2-3.1,2.9-3.1s2.8,1.3,2.9,3.1c0,1.7-1.1,3-2.9,3C168.5,53.8,167.3,52.5,167.3,50.8z"/>
	<path class="st2" d="M205.8,52.4c-1.1,0.6-3.6,1.4-6.8,1.4c-7.2,0-11.8-4.9-11.8-12.1c0-7.3,5-12.6,12.7-12.6c2.5,0,4.8,0.6,6,1.2
		l-1,3.3c-1-0.6-2.6-1.1-5-1.1c-5.4,0-8.4,4-8.4,9c0,5.5,3.5,8.9,8.2,8.9c2.4,0,4.1-0.6,5.3-1.2L205.8,52.4z"/>
	<path class="st2" d="M230.7,46.8c0,2.4,0,4.6,0.2,6.5h-3.8l-0.2-3.9h-0.1c-1.1,1.9-3.6,4.4-7.8,4.4c-3.7,0-8.2-2.1-8.2-10.4V29.5
		h4.3v13.1c0,4.5,1.4,7.5,5.3,7.5c2.9,0,4.9-2,5.7-3.9c0.2-0.6,0.4-1.4,0.4-2.2V29.5h4.3V46.8z"/>
	<path class="st2" d="M242.6,22.9c0,1.5-1,2.6-2.7,2.6c-1.5,0-2.6-1.2-2.6-2.6c0-1.5,1.1-2.7,2.7-2.7
		C241.6,20.2,242.6,21.4,242.6,22.9z M237.8,53.3V29.5h4.3v23.7H237.8z"/>
	<path class="st2" d="M269.8,18.5v28.7c0,2.1,0,4.5,0.2,6.1h-3.9l-0.2-4.1h-0.1c-1.3,2.6-4.2,4.7-8.1,4.7c-5.7,0-10.1-4.9-10.1-12.1
		c0-7.9,4.9-12.7,10.6-12.7c3.6,0,6.1,1.7,7.2,3.6h0.1V18.5H269.8z M265.5,39.2c0-0.5,0-1.3-0.2-1.8c-0.6-2.7-3-5-6.2-5
		c-4.5,0-7.1,3.9-7.1,9.2c0,4.8,2.4,8.8,7,8.8c2.9,0,5.5-1.9,6.3-5.1c0.1-0.6,0.2-1.2,0.2-1.9V39.2z"/>
	<path class="st2" d="M290.1,53.3l-0.3-3h-0.1c-1.3,1.9-3.9,3.5-7.3,3.5c-4.8,0-7.3-3.4-7.3-6.8c0-5.7,5.1-8.9,14.3-8.8v-0.5
		c0-2-0.5-5.5-5.4-5.5c-2.2,0-4.5,0.7-6.2,1.8l-1-2.8c2-1.3,4.8-2.1,7.8-2.1c7.3,0,9,4.9,9,9.7v8.9c0,2.1,0.1,4.1,0.4,5.7H290.1z
		 M289.4,41.2c-4.7-0.1-10,0.7-10,5.3c0,2.8,1.9,4.1,4.1,4.1c3.1,0,5-2,5.7-4c0.1-0.4,0.2-0.9,0.2-1.4V41.2z"/>
	<path class="st2" d="M300.6,36.9c0-2.8,0-5.2-0.2-7.4h3.8l0.1,4.7h0.2c1.1-3.2,3.7-5.2,6.6-5.2c0.5,0,0.8,0,1.2,0.1v4.1
		c-0.4-0.1-0.9-0.1-1.5-0.1c-3,0-5.2,2.3-5.8,5.5c-0.1,0.6-0.2,1.3-0.2,2v12.6h-4.3V36.9z"/>
	<path class="st2" d="M347.5,18.5v28.7c0,2.1,0,4.5,0.2,6.1h-3.9l-0.2-4.1h-0.1c-1.3,2.6-4.2,4.7-8.1,4.7c-5.7,0-10.1-4.9-10.1-12.1
		c0-7.9,4.9-12.7,10.6-12.7c3.6,0,6.1,1.7,7.2,3.6h0.1V18.5H347.5z M343.1,39.2c0-0.5,0-1.3-0.2-1.8c-0.6-2.7-3-5-6.2-5
		c-4.5,0-7.1,3.9-7.1,9.2c0,4.8,2.4,8.8,7,8.8c2.9,0,5.5-1.9,6.3-5.1c0.1-0.6,0.2-1.2,0.2-1.9V39.2z"/>
	<path class="st2" d="M357,42.2c0.1,5.8,3.8,8.2,8.1,8.2c3.1,0,4.9-0.5,6.6-1.2l0.7,3.1c-1.5,0.7-4.1,1.5-7.9,1.5
		c-7.3,0-11.7-4.8-11.7-12c0-7.2,4.2-12.8,11.1-12.8c7.7,0,9.8,6.8,9.8,11.2c0,0.9-0.1,1.6-0.1,2H357z M369.7,39.1c0-2.7-1.1-7-6-7
		c-4.4,0-6.3,4-6.6,7H369.7z"/>
	<path class="st2" d="M389.5,18.5h4.3v34.8h-4.3V18.5z"/>
	<path class="st2" d="M414.2,53.3l-0.3-3h-0.1c-1.3,1.9-3.9,3.5-7.3,3.5c-4.8,0-7.3-3.4-7.3-6.8c0-5.7,5.1-8.9,14.3-8.8v-0.5
		c0-2-0.5-5.5-5.4-5.5c-2.2,0-4.5,0.7-6.2,1.8l-1-2.8c2-1.3,4.8-2.1,7.8-2.1c7.3,0,9,4.9,9,9.7v8.9c0,2.1,0.1,4.1,0.4,5.7H414.2z
		 M413.6,41.2c-4.7-0.1-10,0.7-10,5.3c0,2.8,1.9,4.1,4.1,4.1c3.1,0,5-2,5.7-4c0.1-0.4,0.2-0.9,0.2-1.4V41.2z"/>
	<path class="st2" d="M434.5,48.9c1.3,0.8,3.5,1.7,5.7,1.7c3.1,0,4.6-1.6,4.6-3.5c0-2.1-1.2-3.2-4.4-4.4c-4.3-1.5-6.3-3.9-6.3-6.7
		c0-3.8,3.1-7,8.2-7c2.4,0,4.5,0.7,5.8,1.5l-1.1,3.1c-0.9-0.6-2.6-1.4-4.9-1.4c-2.5,0-4,1.5-4,3.2c0,2,1.4,2.8,4.5,4
		c4.1,1.6,6.2,3.6,6.2,7.2c0,4.2-3.2,7.1-8.9,7.1c-2.6,0-5-0.6-6.7-1.6L434.5,48.9z"/>
	<path class="st2" d="M467.7,53.3l-0.3-3h-0.1c-1.3,1.9-3.9,3.5-7.3,3.5c-4.8,0-7.3-3.4-7.3-6.8c0-5.7,5.1-8.9,14.3-8.8v-0.5
		c0-2-0.5-5.5-5.4-5.5c-2.2,0-4.5,0.7-6.2,1.8l-1-2.8c2-1.3,4.8-2.1,7.8-2.1c7.3,0,9,4.9,9,9.7v8.9c0,2.1,0.1,4.1,0.4,5.7H467.7z
		 M467,41.2c-4.7-0.1-10,0.7-10,5.3c0,2.8,1.9,4.1,4.1,4.1c3.1,0,5-2,5.7-4c0.1-0.4,0.2-0.9,0.2-1.4V41.2z"/>
	<path class="st2" d="M478.1,18.5h4.3v34.8h-4.3V18.5z"/>
	<path class="st2" d="M509.5,46.8c0,2.4,0,4.6,0.2,6.5h-3.8l-0.2-3.9h-0.1c-1.1,1.9-3.6,4.4-7.8,4.4c-3.7,0-8.2-2.1-8.2-10.4V29.5
		h4.3v13.1c0,4.5,1.4,7.5,5.3,7.5c2.9,0,4.9-2,5.7-3.9c0.2-0.6,0.4-1.4,0.4-2.2V29.5h4.3V46.8z"/>
	<path class="st2" d="M537.2,18.5v28.7c0,2.1,0,4.5,0.2,6.1h-3.9l-0.2-4.1h-0.1c-1.3,2.6-4.2,4.7-8.1,4.7c-5.7,0-10.1-4.9-10.1-12.1
		c0-7.9,4.9-12.7,10.6-12.7c3.6,0,6.1,1.7,7.2,3.6h0.1V18.5H537.2z M532.9,39.2c0-0.5,0-1.3-0.2-1.8c-0.6-2.7-3-5-6.2-5
		c-4.5,0-7.1,3.9-7.1,9.2c0,4.8,2.4,8.8,7,8.8c2.9,0,5.5-1.9,6.3-5.1c0.1-0.6,0.2-1.2,0.2-1.9V39.2z"/>
	<path class="st2" d="M554.5,53.3c0.1-1.6,0.2-4,0.2-6.1V18.5h4.3v14.9h0.1c1.5-2.6,4.3-4.4,8.1-4.4c5.9,0,10,4.9,10,12.1
		c0,8.5-5.3,12.7-10.6,12.7c-3.4,0-6.2-1.3-7.9-4.5h-0.1l-0.2,3.9H554.5z M559,43.8c0,0.5,0.1,1.1,0.2,1.6c0.8,3,3.3,5,6.5,5
		c4.5,0,7.2-3.7,7.2-9.1c0-4.8-2.5-8.8-7.1-8.8c-2.9,0-5.7,2-6.6,5.3c-0.1,0.5-0.2,1.1-0.2,1.8V43.8z"/>
	<path class="st2" d="M602.4,46.8c0,2.4,0,4.6,0.2,6.5h-3.8l-0.2-3.9h-0.1c-1.1,1.9-3.6,4.4-7.8,4.4c-3.7,0-8.2-2.1-8.2-10.4V29.5
		h4.3v13.1c0,4.5,1.4,7.5,5.3,7.5c2.9,0,4.9-2,5.7-3.9c0.2-0.6,0.4-1.4,0.4-2.2V29.5h4.3V46.8z"/>
	<path class="st2" d="M626.5,52.4c-1.1,0.6-3.6,1.4-6.8,1.4c-7.2,0-11.8-4.9-11.8-12.1c0-7.3,5-12.6,12.7-12.6c2.5,0,4.8,0.6,6,1.2
		l-1,3.3c-1-0.6-2.6-1.1-5-1.1c-5.4,0-8.4,4-8.4,9c0,5.5,3.5,8.9,8.2,8.9c2.4,0,4.1-0.6,5.3-1.2L626.5,52.4z"/>
	<path class="st2" d="M644.7,53.3l-0.3-3h-0.1c-1.3,1.9-3.9,3.5-7.3,3.5c-4.8,0-7.3-3.4-7.3-6.8c0-5.7,5.1-8.9,14.3-8.8v-0.5
		c0-2-0.5-5.5-5.4-5.5c-2.2,0-4.5,0.7-6.2,1.8l-1-2.8c2-1.3,4.8-2.1,7.8-2.1c7.3,0,9,4.9,9,9.7v8.9c0,2.1,0.1,4.1,0.4,5.7H644.7z
		 M644,41.2c-4.7-0.1-10,0.7-10,5.3c0,2.8,1.9,4.1,4.1,4.1c3.1,0,5-2,5.7-4c0.1-0.4,0.2-0.9,0.2-1.4V41.2z"/>
	<path class="st2" d="M655.2,18.5h4.3v34.8h-4.3V18.5z"/>
	<path class="st2" d="M697.6,18.5v28.7c0,2.1,0,4.5,0.2,6.1h-3.9l-0.2-4.1h-0.1c-1.3,2.6-4.2,4.7-8.1,4.7c-5.7,0-10.1-4.9-10.1-12.1
		c0-7.9,4.9-12.7,10.6-12.7c3.6,0,6.1,1.7,7.2,3.6h0.1V18.5H697.6z M693.3,39.2c0-0.5,0-1.3-0.2-1.8c-0.6-2.7-3-5-6.2-5
		c-4.5,0-7.1,3.9-7.1,9.2c0,4.8,2.4,8.8,7,8.8c2.9,0,5.5-1.9,6.3-5.1c0.1-0.6,0.2-1.2,0.2-1.9V39.2z"/>
	<path class="st2" d="M707.2,42.2c0.1,5.8,3.8,8.2,8.1,8.2c3.1,0,4.9-0.5,6.6-1.2l0.7,3.1c-1.5,0.7-4.1,1.5-7.9,1.5
		c-7.3,0-11.7-4.8-11.7-12c0-7.2,4.2-12.8,11.1-12.8c7.7,0,9.8,6.8,9.8,11.2c0,0.9-0.1,1.6-0.1,2H707.2z M719.8,39.1
		c0-2.7-1.1-7-6-7c-4.4,0-6.3,4-6.6,7H719.8z"/>
	<path class="st2" d="M739.7,36c0-2.5,0-4.5-0.2-6.4h3.8l0.2,3.9h0.1c1.2-2.3,3.9-4.5,7.8-4.5c3.3,0,8.4,2,8.4,10.1v14.2h-4.3V39.6
		c0-3.8-1.4-7-5.5-7c-2.8,0-5,2-5.8,4.4c-0.2,0.5-0.3,1.3-0.3,2v14.3h-4.3V36z"/>
	<path class="st2" d="M786.7,46.8c0,2.4,0,4.6,0.2,6.5h-3.8l-0.2-3.9h-0.1c-1.1,1.9-3.6,4.4-7.8,4.4c-3.7,0-8.2-2.1-8.2-10.4V29.5
		h4.3v13.1c0,4.5,1.4,7.5,5.3,7.5c2.9,0,4.9-2,5.7-3.9c0.2-0.6,0.4-1.4,0.4-2.2V29.5h4.3V46.8z"/>
	<path class="st2" d="M796.3,42.2c0.1,5.8,3.8,8.2,8.1,8.2c3.1,0,4.9-0.5,6.6-1.2l0.7,3.1c-1.5,0.7-4.1,1.5-7.9,1.5
		c-7.3,0-11.7-4.8-11.7-12c0-7.2,4.2-12.8,11.1-12.8c7.7,0,9.8,6.8,9.8,11.2c0,0.9-0.1,1.6-0.1,2H796.3z M808.9,39.1
		c0-2.7-1.1-7-6-7c-4.4,0-6.3,4-6.6,7H808.9z"/>
	<path class="st2" d="M817.8,48.9c1.3,0.8,3.5,1.7,5.7,1.7c3.1,0,4.6-1.6,4.6-3.5c0-2.1-1.2-3.2-4.4-4.4c-4.3-1.5-6.3-3.9-6.3-6.7
		c0-3.8,3.1-7,8.2-7c2.4,0,4.5,0.7,5.8,1.5l-1.1,3.1c-0.9-0.6-2.6-1.4-4.9-1.4c-2.5,0-4,1.5-4,3.2c0,2,1.4,2.8,4.5,4
		c4.1,1.6,6.2,3.6,6.2,7.2c0,4.2-3.2,7.1-8.9,7.1c-2.6,0-5-0.6-6.7-1.6L817.8,48.9z"/>
	<path class="st2" d="M843,22.7v6.8h6.2v3.3H843v12.8c0,2.9,0.8,4.6,3.2,4.6c1.1,0,2-0.1,2.5-0.3l0.2,3.2c-0.8,0.3-2.2,0.6-3.8,0.6
		c-2,0-3.6-0.6-4.7-1.8c-1.2-1.3-1.7-3.4-1.7-6.2V32.8h-3.7v-3.3h3.7v-5.7L843,22.7z"/>
	<path class="st2" d="M854.1,36.9c0-2.8,0-5.2-0.2-7.4h3.8l0.1,4.7h0.2c1.1-3.2,3.7-5.2,6.6-5.2c0.5,0,0.8,0,1.2,0.1v4.1
		c-0.4-0.1-0.9-0.1-1.5-0.1c-3,0-5.2,2.3-5.8,5.5c-0.1,0.6-0.2,1.3-0.2,2v12.6h-4.3V36.9z"/>
	<path class="st2" d="M891.1,41.2c0,8.8-6.1,12.6-11.8,12.6c-6.4,0-11.4-4.7-11.4-12.2c0-7.9,5.2-12.6,11.8-12.6
		C886.4,29,891.1,34,891.1,41.2z M872.2,41.5c0,5.2,3,9.1,7.2,9.1c4.1,0,7.2-3.9,7.2-9.2c0-4-2-9.1-7.1-9.1
		C874.4,32.2,872.2,36.9,872.2,41.5z"/>
	<path class="st2" d="M895.9,48.9c1.3,0.8,3.5,1.7,5.7,1.7c3.1,0,4.6-1.6,4.6-3.5c0-2.1-1.2-3.2-4.4-4.4c-4.3-1.5-6.3-3.9-6.3-6.7
		c0-3.8,3.1-7,8.2-7c2.4,0,4.5,0.7,5.8,1.5l-1.1,3.1c-0.9-0.6-2.6-1.4-4.9-1.4c-2.5,0-4,1.5-4,3.2c0,2,1.4,2.8,4.5,4
		c4.1,1.6,6.2,3.6,6.2,7.2c0,4.2-3.2,7.1-8.9,7.1c-2.6,0-5-0.6-6.7-1.6L895.9,48.9z"/>
	<path class="st2" d="M926.3,37.3c0-3-0.1-5.5-0.2-7.7h3.9l0.2,4.1h0.1c1.8-2.9,4.6-4.6,8.4-4.6c5.7,0,10,4.9,10,12.1
		c0,8.5-5.2,12.7-10.8,12.7c-3.1,0-5.9-1.4-7.3-3.7h-0.1V63h-4.3V37.3z M930.5,43.6c0,0.6,0.1,1.2,0.2,1.8c0.8,3,3.4,5,6.5,5
		c4.6,0,7.2-3.7,7.2-9.2c0-4.8-2.5-8.8-7.1-8.8c-2.9,0-5.7,2.1-6.5,5.3c-0.1,0.5-0.3,1.2-0.3,1.8V43.6z"/>
	<path class="st2" d="M967.3,53.3l-0.3-3h-0.1c-1.3,1.9-3.9,3.5-7.3,3.5c-4.8,0-7.3-3.4-7.3-6.8c0-5.7,5.1-8.9,14.3-8.8v-0.5
		c0-2-0.5-5.5-5.4-5.5c-2.2,0-4.5,0.7-6.2,1.8l-1-2.8c2-1.3,4.8-2.1,7.8-2.1c7.3,0,9,4.9,9,9.7v8.9c0,2.1,0.1,4.1,0.4,5.7H967.3z
		 M966.7,41.2c-4.7-0.1-10,0.7-10,5.3c0,2.8,1.9,4.1,4.1,4.1c3.1,0,5-2,5.7-4c0.1-0.4,0.2-0.9,0.2-1.4V41.2z"/>
	<path class="st2" d="M994.7,52.4c-1.1,0.6-3.6,1.4-6.8,1.4c-7.2,0-11.8-4.9-11.8-12.1c0-7.3,5-12.6,12.7-12.6c2.5,0,4.8,0.6,6,1.2
		l-1,3.3c-1-0.6-2.6-1.1-5-1.1c-5.4,0-8.4,4-8.4,9c0,5.5,3.5,8.9,8.2,8.9c2.4,0,4.1-0.6,5.3-1.2L994.7,52.4z"/>
	<path class="st2" d="M1004.5,22.9c0,1.5-1,2.6-2.7,2.6c-1.5,0-2.6-1.2-2.6-2.6c0-1.5,1.1-2.7,2.7-2.7
		C1003.5,20.2,1004.5,21.4,1004.5,22.9z M999.7,53.3V29.5h4.3v23.7H999.7z"/>
	<path class="st2" d="M1013.6,42.2c0.1,5.8,3.8,8.2,8.1,8.2c3.1,0,4.9-0.5,6.6-1.2l0.7,3.1c-1.5,0.7-4.1,1.5-7.9,1.5
		c-7.3,0-11.7-4.8-11.7-12c0-7.2,4.2-12.8,11.1-12.8c7.7,0,9.8,6.8,9.8,11.2c0,0.9-0.1,1.6-0.1,2H1013.6z M1026.2,39.1
		c0-2.7-1.1-7-6-7c-4.4,0-6.3,4-6.6,7H1026.2z"/>
	<path class="st2" d="M1035.7,36c0-2.5,0-4.5-0.2-6.4h3.8l0.2,3.9h0.1c1.2-2.3,3.9-4.5,7.8-4.5c3.3,0,8.4,2,8.4,10.1v14.2h-4.3V39.6
		c0-3.8-1.4-7-5.5-7c-2.8,0-5,2-5.8,4.4c-0.2,0.5-0.3,1.3-0.3,2v14.3h-4.3V36z"/>
	<path class="st2" d="M1067.9,22.7v6.8h6.2v3.3h-6.2v12.8c0,2.9,0.8,4.6,3.2,4.6c1.1,0,2-0.1,2.5-0.3l0.2,3.2
		c-0.8,0.3-2.2,0.6-3.8,0.6c-2,0-3.6-0.6-4.7-1.8c-1.2-1.3-1.7-3.4-1.7-6.2V32.8h-3.7v-3.3h3.7v-5.7L1067.9,22.7z"/>
	<path class="st2" d="M1081.1,42.2c0.1,5.8,3.8,8.2,8.1,8.2c3.1,0,4.9-0.5,6.6-1.2l0.7,3.1c-1.5,0.7-4.1,1.5-7.9,1.5
		c-7.3,0-11.7-4.8-11.7-12c0-7.2,4.2-12.8,11.1-12.8c7.7,0,9.8,6.8,9.8,11.2c0,0.9-0.1,1.6-0.1,2H1081.1z M1093.7,39.1
		c0-2.7-1.1-7-6-7c-4.4,0-6.3,4-6.6,7H1093.7z"/>
	<path class="st2" d="M1102.6,48.9c1.3,0.8,3.5,1.7,5.7,1.7c3.1,0,4.6-1.6,4.6-3.5c0-2.1-1.2-3.2-4.4-4.4c-4.3-1.5-6.3-3.9-6.3-6.7
		c0-3.8,3.1-7,8.2-7c2.4,0,4.5,0.7,5.8,1.5l-1.1,3.1c-0.9-0.6-2.6-1.4-4.9-1.4c-2.5,0-4,1.5-4,3.2c0,2,1.4,2.8,4.5,4
		c4.1,1.6,6.2,3.6,6.2,7.2c0,4.2-3.2,7.1-8.9,7.1c-2.6,0-5-0.6-6.7-1.6L1102.6,48.9z"/>
	<path class="st2" d="M39.8,103.4c-1.1,0.6-3.6,1.4-6.8,1.4c-7.2,0-11.8-4.9-11.8-12.1c0-7.3,5-12.6,12.7-12.6c2.5,0,4.8,0.6,6,1.2
		l-1,3.3c-1-0.6-2.6-1.1-5-1.1c-5.4,0-8.4,4-8.4,9c0,5.5,3.5,8.9,8.2,8.9c2.5,0,4.1-0.6,5.3-1.2L39.8,103.4z"/>
	<path class="st2" d="M66.1,92.2c0,8.8-6.1,12.6-11.8,12.6c-6.4,0-11.4-4.7-11.4-12.2c0-7.9,5.2-12.6,11.8-12.6
		C61.4,80,66.1,85,66.1,92.2z M47.2,92.5c0,5.2,3,9.1,7.2,9.1c4.1,0,7.2-3.9,7.2-9.2c0-4-2-9.1-7.1-9.1S47.2,87.9,47.2,92.5z"/>
	<path class="st2" d="M71.5,87c0-2.5,0-4.5-0.2-6.4h3.8l0.2,3.9h0.1c1.2-2.3,3.9-4.5,7.8-4.5c3.3,0,8.4,2,8.4,10.1v14.2h-4.3V90.6
		c0-3.8-1.4-7-5.5-7c-2.8,0-5,2-5.8,4.4c-0.2,0.5-0.3,1.3-0.3,2v14.3h-4.3V87z"/>
	<path class="st2" d="M109.1,69.5h4.3v34.8h-4.3V69.5z"/>
	<path class="st2" d="M142.1,92.2c0,8.8-6.1,12.6-11.8,12.6c-6.4,0-11.4-4.7-11.4-12.2c0-7.9,5.2-12.6,11.8-12.6
		C137.5,80,142.1,85,142.1,92.2z M123.3,92.5c0,5.2,3,9.1,7.2,9.1c4.1,0,7.2-3.9,7.2-9.2c0-4-2-9.1-7.1-9.1
		C125.5,83.2,123.3,87.9,123.3,92.5z"/>
	<path class="st2" d="M147,99.9c1.3,0.8,3.5,1.7,5.7,1.7c3.1,0,4.6-1.6,4.6-3.5c0-2.1-1.2-3.2-4.4-4.4c-4.3-1.5-6.3-3.9-6.3-6.7
		c0-3.8,3.1-7,8.2-7c2.4,0,4.5,0.7,5.8,1.5l-1.1,3.1c-0.9-0.6-2.6-1.4-4.9-1.4c-2.5,0-4,1.5-4,3.2c0,2,1.4,2.8,4.5,4
		c4.1,1.6,6.2,3.6,6.2,7.2c0,4.2-3.2,7.1-8.9,7.1c-2.6,0-5-0.6-6.7-1.6L147,99.9z"/>
	<path class="st2" d="M177.3,87c0-2.5,0-4.5-0.2-6.4h3.8l0.2,3.8h0.1c1.3-2.3,3.5-4.4,7.4-4.4c3.2,0,5.7,2,6.7,4.8h0.1
		c0.7-1.3,1.7-2.4,2.6-3.1c1.4-1.1,3-1.7,5.2-1.7c3.1,0,7.8,2.1,7.8,10.3v14H207V90.8c0-4.6-1.7-7.3-5.1-7.3c-2.4,0-4.4,1.8-5.1,3.9
		c-0.2,0.6-0.3,1.4-0.3,2.2v14.6h-4.2V90.1c0-3.8-1.7-6.5-4.9-6.5c-2.7,0-4.7,2.2-5.3,4.3c-0.2,0.6-0.3,1.4-0.3,2.1v14.3h-4.2V87z"
		/>
	<path class="st2" d="M220.6,93.2c0.1,5.8,3.8,8.2,8.1,8.2c3.1,0,4.9-0.5,6.6-1.2l0.7,3.1c-1.5,0.7-4.1,1.5-7.9,1.5
		c-7.3,0-11.7-4.8-11.7-12c0-7.2,4.2-12.8,11.1-12.8c7.7,0,9.8,6.8,9.8,11.2c0,0.9-0.1,1.6-0.1,2H220.6z M233.2,90.1
		c0-2.7-1.1-7-6-7c-4.4,0-6.3,4-6.6,7H233.2z"/>
	<path class="st2" d="M237,111.1c2-0.1,3.7-0.7,4.7-1.8c1.2-1.4,1.6-3.2,1.6-8.9V80.5h4.3v21.5c0,4.6-0.7,7.6-2.8,9.8
		c-1.9,1.9-5,2.7-7.3,2.7L237,111.1z M248.1,73.9c0,1.4-1,2.6-2.7,2.6c-1.6,0-2.6-1.2-2.6-2.6c0-1.5,1.1-2.7,2.7-2.7
		C247.1,71.2,248.1,72.4,248.1,73.9z"/>
	<path class="st2" d="M276.1,92.2c0,8.8-6.1,12.6-11.8,12.6c-6.4,0-11.4-4.7-11.4-12.2c0-7.9,5.2-12.6,11.8-12.6
		C271.5,80,276.1,85,276.1,92.2z M257.3,92.5c0,5.2,3,9.1,7.2,9.1c4.1,0,7.2-3.9,7.2-9.2c0-4-2-9.1-7.1-9.1
		C259.5,83.2,257.3,87.9,257.3,92.5z"/>
	<path class="st2" d="M281.6,87.9c0-2.8,0-5.2-0.2-7.4h3.8l0.1,4.7h0.2c1.1-3.2,3.7-5.2,6.6-5.2c0.5,0,0.8,0,1.2,0.1v4.1
		c-0.4-0.1-0.9-0.1-1.5-0.1c-3,0-5.2,2.3-5.8,5.5c-0.1,0.6-0.2,1.3-0.2,2v12.6h-4.3V87.9z"/>
	<path class="st2" d="M299.5,93.2c0.1,5.8,3.8,8.2,8.1,8.2c3.1,0,4.9-0.5,6.6-1.2l0.7,3.1c-1.5,0.7-4.1,1.5-7.9,1.5
		c-7.3,0-11.7-4.8-11.7-12c0-7.2,4.2-12.8,11.1-12.8c7.7,0,9.8,6.8,9.8,11.2c0,0.9-0.1,1.6-0.1,2H299.5z M312.1,90.1
		c0-2.7-1.1-7-6-7c-4.4,0-6.3,4-6.6,7H312.1z"/>
	<path class="st2" d="M321,99.9c1.3,0.8,3.5,1.7,5.7,1.7c3.1,0,4.6-1.6,4.6-3.5c0-2.1-1.2-3.2-4.4-4.4c-4.3-1.5-6.3-3.9-6.3-6.7
		c0-3.8,3.1-7,8.2-7c2.4,0,4.5,0.7,5.8,1.5l-1.1,3.1c-0.9-0.6-2.6-1.4-4.9-1.4c-2.5,0-4,1.5-4,3.2c0,2,1.4,2.8,4.5,4
		c4.1,1.6,6.2,3.6,6.2,7.2c0,4.2-3.2,7.1-8.9,7.1c-2.6,0-5-0.6-6.7-1.6L321,99.9z"/>
	<path class="st2" d="M351.4,88.3c0-3-0.1-5.5-0.2-7.7h3.9l0.2,4.1h0.1c1.8-2.9,4.6-4.6,8.4-4.6c5.7,0,10,4.9,10,12.1
		c0,8.5-5.2,12.7-10.8,12.7c-3.1,0-5.9-1.4-7.3-3.7h-0.1V114h-4.3V88.3z M355.7,94.6c0,0.6,0.1,1.2,0.2,1.8c0.8,3,3.4,5,6.5,5
		c4.6,0,7.2-3.7,7.2-9.2c0-4.8-2.5-8.8-7.1-8.8c-2.9,0-5.7,2.1-6.5,5.3c-0.1,0.5-0.3,1.2-0.3,1.8V94.6z"/>
	<path class="st2" d="M379.3,87.9c0-2.8,0-5.2-0.2-7.4h3.8l0.1,4.7h0.2c1.1-3.2,3.7-5.2,6.6-5.2c0.5,0,0.8,0,1.2,0.1v4.1
		c-0.4-0.1-0.9-0.1-1.5-0.1c-3,0-5.2,2.3-5.8,5.5c-0.1,0.6-0.2,1.3-0.2,2v12.6h-4.3V87.9z"/>
	<path class="st2" d="M416.3,92.2c0,8.8-6.1,12.6-11.8,12.6c-6.4,0-11.4-4.7-11.4-12.2c0-7.9,5.2-12.6,11.8-12.6
		C411.7,80,416.3,85,416.3,92.2z M397.5,92.5c0,5.2,3,9.1,7.2,9.1c4.1,0,7.2-3.9,7.2-9.2c0-4-2-9.1-7.1-9.1S397.5,87.9,397.5,92.5z"
		/>
	<path class="st2" d="M442.2,69.5v28.7c0,2.1,0,4.5,0.2,6.1h-3.9l-0.2-4.1h-0.1c-1.3,2.6-4.2,4.7-8.1,4.7c-5.7,0-10.1-4.9-10.1-12.1
		c0-7.9,4.9-12.7,10.6-12.7c3.6,0,6.1,1.7,7.2,3.6h0.1V69.5H442.2z M437.9,90.2c0-0.5,0-1.3-0.2-1.8c-0.6-2.7-3-5-6.2-5
		c-4.5,0-7.1,3.9-7.1,9.2c0,4.8,2.4,8.8,7,8.8c2.9,0,5.5-1.9,6.3-5.1c0.1-0.6,0.2-1.2,0.2-1.9V90.2z"/>
	<path class="st2" d="M469.2,97.8c0,2.4,0,4.6,0.2,6.5h-3.8l-0.2-3.9h-0.1c-1.1,1.9-3.6,4.4-7.8,4.4c-3.7,0-8.2-2.1-8.2-10.4V80.5
		h4.3v13.1c0,4.5,1.4,7.5,5.3,7.5c2.9,0,4.9-2,5.7-3.9c0.2-0.6,0.4-1.4,0.4-2.2V80.5h4.3V97.8z"/>
	<path class="st2" d="M493.3,103.4c-1.1,0.6-3.6,1.4-6.8,1.4c-7.2,0-11.8-4.9-11.8-12.1c0-7.3,5-12.6,12.7-12.6c2.5,0,4.8,0.6,6,1.2
		l-1,3.3c-1-0.6-2.6-1.1-5-1.1c-5.4,0-8.4,4-8.4,9c0,5.5,3.5,8.9,8.2,8.9c2.4,0,4.1-0.6,5.3-1.2L493.3,103.4z"/>
	<path class="st2" d="M504.2,73.7v6.8h6.2v3.3h-6.2v12.8c0,2.9,0.8,4.6,3.2,4.6c1.1,0,2-0.1,2.5-0.3l0.2,3.2
		c-0.8,0.3-2.2,0.6-3.8,0.6c-2,0-3.6-0.6-4.7-1.8c-1.2-1.3-1.7-3.4-1.7-6.2V83.8h-3.7v-3.3h3.7v-5.7L504.2,73.7z"/>
	<path class="st2" d="M536.4,92.2c0,8.8-6.1,12.6-11.8,12.6c-6.4,0-11.4-4.7-11.4-12.2c0-7.9,5.2-12.6,11.8-12.6
		C531.7,80,536.4,85,536.4,92.2z M517.5,92.5c0,5.2,3,9.1,7.2,9.1c4.1,0,7.2-3.9,7.2-9.2c0-4-2-9.1-7.1-9.1
		C519.7,83.2,517.5,87.9,517.5,92.5z"/>
	<path class="st2" d="M541.2,99.9c1.3,0.8,3.5,1.7,5.7,1.7c3.1,0,4.6-1.6,4.6-3.5c0-2.1-1.2-3.2-4.4-4.4c-4.3-1.5-6.3-3.9-6.3-6.7
		c0-3.8,3.1-7,8.2-7c2.4,0,4.5,0.7,5.8,1.5l-1.1,3.1c-0.9-0.6-2.6-1.4-4.9-1.4c-2.5,0-4,1.5-4,3.2c0,2,1.4,2.8,4.5,4
		c4.1,1.6,6.2,3.6,6.2,7.2c0,4.2-3.2,7.1-8.9,7.1c-2.6,0-5-0.6-6.7-1.6L541.2,99.9z"/>
	<path class="st2" d="M592.1,69.5v28.7c0,2.1,0,4.5,0.2,6.1h-3.9l-0.2-4.1h-0.1c-1.3,2.6-4.2,4.7-8.1,4.7c-5.7,0-10.1-4.9-10.1-12.1
		c0-7.9,4.9-12.7,10.6-12.7c3.6,0,6.1,1.7,7.2,3.6h0.1V69.5H592.1z M587.8,90.2c0-0.5,0-1.3-0.2-1.8c-0.6-2.7-3-5-6.2-5
		c-4.5,0-7.1,3.9-7.1,9.2c0,4.8,2.4,8.8,7,8.8c2.9,0,5.5-1.9,6.3-5.1c0.1-0.6,0.2-1.2,0.2-1.9V90.2z"/>
	<path class="st2" d="M601.6,93.2c0.1,5.8,3.8,8.2,8.1,8.2c3.1,0,4.9-0.5,6.6-1.2l0.7,3.1c-1.5,0.7-4.1,1.5-7.9,1.5
		c-7.3,0-11.7-4.8-11.7-12c0-7.2,4.2-12.8,11.1-12.8c7.7,0,9.8,6.8,9.8,11.2c0,0.9-0.1,1.6-0.1,2H601.6z M614.3,90.1
		c0-2.7-1.1-7-6-7c-4.4,0-6.3,4-6.6,7H614.3z"/>
	<path class="st2" d="M623.8,69.5h4.3v34.8h-4.3V69.5z"/>
	<path class="st2" d="M645.7,87c0-2.5,0-4.5-0.2-6.4h3.8l0.2,3.8h0.1c1.3-2.3,3.5-4.4,7.4-4.4c3.2,0,5.7,2,6.7,4.8h0.1
		c0.7-1.3,1.7-2.4,2.6-3.1c1.4-1.1,3-1.7,5.2-1.7c3.1,0,7.8,2.1,7.8,10.3v14h-4.2V90.8c0-4.6-1.7-7.3-5.1-7.3
		c-2.5,0-4.4,1.8-5.1,3.9c-0.2,0.6-0.3,1.4-0.3,2.2v14.6h-4.2V90.1c0-3.8-1.7-6.5-4.9-6.5c-2.7,0-4.7,2.2-5.3,4.3
		c-0.2,0.6-0.3,1.4-0.3,2.1v14.3h-4.2V87z"/>
	<path class="st2" d="M706.4,97.8c0,2.4,0,4.6,0.2,6.5h-3.8l-0.2-3.9h-0.1c-1.1,1.9-3.6,4.4-7.8,4.4c-3.7,0-8.2-2.1-8.2-10.4V80.5
		h4.3v13.1c0,4.5,1.4,7.5,5.3,7.5c2.9,0,4.9-2,5.7-3.9c0.2-0.6,0.4-1.4,0.4-2.2V80.5h4.3V97.8z"/>
	<path class="st2" d="M713.6,87c0-2.5,0-4.5-0.2-6.4h3.8l0.2,3.9h0.1c1.2-2.3,3.9-4.5,7.8-4.5c3.3,0,8.4,2,8.4,10.1v14.2h-4.3V90.6
		c0-3.8-1.4-7-5.5-7c-2.8,0-5,2-5.8,4.4c-0.2,0.5-0.3,1.3-0.3,2v14.3h-4.3V87z"/>
	<path class="st2" d="M761.3,69.5v28.7c0,2.1,0,4.5,0.2,6.1h-3.9l-0.2-4.1h-0.1c-1.3,2.6-4.2,4.7-8.1,4.7c-5.7,0-10.1-4.9-10.1-12.1
		c0-7.9,4.9-12.7,10.6-12.7c3.6,0,6.1,1.7,7.2,3.6h0.1V69.5H761.3z M756.9,90.2c0-0.5,0-1.3-0.2-1.8c-0.6-2.7-3-5-6.2-5
		c-4.5,0-7.1,3.9-7.1,9.2c0,4.8,2.4,8.8,7,8.8c2.9,0,5.5-1.9,6.3-5.1c0.1-0.6,0.2-1.2,0.2-1.9V90.2z"/>
	<path class="st2" d="M789.9,92.2c0,8.8-6.1,12.6-11.8,12.6c-6.4,0-11.4-4.7-11.4-12.2c0-7.9,5.2-12.6,11.8-12.6
		C785.3,80,789.9,85,789.9,92.2z M771.1,92.5c0,5.2,3,9.1,7.2,9.1c4.1,0,7.2-3.9,7.2-9.2c0-4-2-9.1-7.1-9.1
		C773.3,83.2,771.1,87.9,771.1,92.5z"/>
	<path class="st2" d="M791.3,110.3c1.1-2.9,2.4-8.1,2.9-11.7l4.8-0.5c-1.1,4.2-3.3,9.6-4.7,11.9L791.3,110.3z"/>
	<path class="st2" d="M831.6,103.4c-1.1,0.6-3.6,1.4-6.8,1.4c-7.2,0-11.8-4.9-11.8-12.1c0-7.3,5-12.6,12.7-12.6c2.5,0,4.8,0.6,6,1.2
		l-1,3.3c-1-0.6-2.6-1.1-5-1.1c-5.4,0-8.4,4-8.4,9c0,5.5,3.5,8.9,8.2,8.9c2.4,0,4.1-0.6,5.3-1.2L831.6,103.4z"/>
	<path class="st2" d="M857.8,92.2c0,8.8-6.1,12.6-11.8,12.6c-6.4,0-11.4-4.7-11.4-12.2c0-7.9,5.2-12.6,11.8-12.6
		C853.2,80,857.8,85,857.8,92.2z M839,92.5c0,5.2,3,9.1,7.2,9.1c4.1,0,7.2-3.9,7.2-9.2c0-4-2-9.1-7.1-9.1S839,87.9,839,92.5z"/>
	<path class="st2" d="M863.2,87c0-2.5,0-4.5-0.2-6.4h3.8l0.2,3.9h0.1c1.2-2.3,3.9-4.5,7.8-4.5c3.3,0,8.4,2,8.4,10.1v14.2h-4.3V90.6
		c0-3.8-1.4-7-5.5-7c-2.8,0-5,2-5.8,4.4c-0.2,0.5-0.3,1.3-0.3,2v14.3h-4.3V87z"/>
	<path class="st2" d="M903.2,93.2c0.1,5.8,3.8,8.2,8.1,8.2c3.1,0,4.9-0.5,6.6-1.2l0.7,3.1c-1.5,0.7-4.1,1.5-7.9,1.5
		c-7.3,0-11.7-4.8-11.7-12c0-7.2,4.2-12.8,11.1-12.8c7.7,0,9.8,6.8,9.8,11.2c0,0.9-0.1,1.6-0.1,2H903.2z M915.9,90.1
		c0-2.7-1.1-7-6-7c-4.4,0-6.3,4-6.6,7H915.9z"/>
	<path class="st2" d="M925.4,69.5h4.3v34.8h-4.3V69.5z"/>
	<path class="st2" d="M947.8,104.3V83.8h-3.3v-3.3h3.3v-1.3c0-6.3,3.7-10.3,10.3-10.3c2.2,0,4.8,0.7,6,1.6l-1.2,3.3
		c-1-0.7-2.9-1.4-5-1.4c-4.6,0-5.9,3.2-5.9,7v1.2h13.8v23.7h-4.3V83.8H952v20.4H947.8z"/>
	<path class="st2" d="M972.9,87c0-2.5,0-4.5-0.2-6.4h3.8l0.2,3.9h0.1c1.2-2.3,3.9-4.5,7.8-4.5c3.3,0,8.4,2,8.4,10.1v14.2h-4.3V90.6
		c0-3.8-1.4-7-5.5-7c-2.8,0-5,2-5.8,4.4c-0.2,0.5-0.3,1.3-0.3,2v14.3h-4.3V87z"/>
	<path class="st2" d="M1031,69.5v28.7c0,2.1,0,4.5,0.2,6.1h-3.9l-0.2-4.1h-0.1c-1.3,2.6-4.2,4.7-8.1,4.7c-5.7,0-10.1-4.9-10.1-12.1
		c0-7.9,4.9-12.7,10.6-12.7c3.6,0,6.1,1.7,7.2,3.6h0.1V69.5H1031z M1026.7,90.2c0-0.5,0-1.3-0.2-1.8c-0.6-2.7-3-5-6.2-5
		c-4.5,0-7.1,3.9-7.1,9.2c0,4.8,2.4,8.8,7,8.8c2.9,0,5.5-1.9,6.3-5.1c0.1-0.6,0.2-1.2,0.2-1.9V90.2z"/>
	<path class="st2" d="M1040.6,93.2c0.1,5.8,3.8,8.2,8.1,8.2c3.1,0,4.9-0.5,6.6-1.2l0.7,3.1c-1.5,0.7-4.1,1.5-7.9,1.5
		c-7.3,0-11.7-4.8-11.7-12c0-7.2,4.2-12.8,11.1-12.8c7.7,0,9.8,6.8,9.8,11.2c0,0.9-0.1,1.6-0.1,2H1040.6z M1053.2,90.1
		c0-2.7-1.1-7-6-7c-4.4,0-6.3,4-6.6,7H1053.2z"/>
	<path class="st2" d="M1089.3,100.6L1089.3,100.6c-1.4,2.4-4,4.2-7.8,4.2c-5.5,0-10-4.8-10-12c0-8.9,5.7-12.8,10.7-12.8
		c3.7,0,6.1,1.8,7.3,4.1h0.1l0.1-3.6h4.1c-0.1,2-0.1,4.1-0.1,6.5V114h-4.3V100.6z M1089.3,90.2c0-0.6,0-1.3-0.2-1.8
		c-0.6-2.6-2.9-4.9-6.2-4.9c-4.5,0-7.2,3.8-7.2,9.1c0,4.7,2.3,8.8,7,8.8c2.8,0,5.2-1.7,6.2-4.7c0.2-0.6,0.3-1.4,0.3-2.1V90.2z"/>
	<path class="st2" d="M1120.5,97.8c0,2.4,0,4.6,0.2,6.5h-3.8l-0.2-3.9h-0.1c-1.1,1.9-3.6,4.4-7.8,4.4c-3.7,0-8.2-2.1-8.2-10.4V80.5
		h4.3v13.1c0,4.5,1.4,7.5,5.3,7.5c2.9,0,4.9-2,5.7-3.9c0.2-0.6,0.4-1.4,0.4-2.2V80.5h4.3V97.8z"/>
	<path class="st2" d="M1130.1,93.2c0.1,5.8,3.8,8.2,8.1,8.2c3.1,0,4.9-0.5,6.6-1.2l0.7,3.1c-1.5,0.7-4.1,1.5-7.9,1.5
		c-7.3,0-11.7-4.8-11.7-12c0-7.2,4.2-12.8,11.1-12.8c7.7,0,9.8,6.8,9.8,11.2c0,0.9-0.1,1.6-0.1,2H1130.1z M1142.7,90.1
		c0-2.7-1.1-7-6-7c-4.4,0-6.3,4-6.6,7H1142.7z"/>
	<path class="st2" d="M22.3,150.9c1.3,0.8,3.5,1.7,5.7,1.7c3.1,0,4.6-1.6,4.6-3.5c0-2.1-1.2-3.2-4.4-4.4c-4.3-1.5-6.3-3.9-6.3-6.7
		c0-3.8,3.1-7,8.2-7c2.4,0,4.5,0.7,5.8,1.5l-1.1,3.1c-0.9-0.6-2.6-1.4-4.9-1.4c-2.5,0-4,1.5-4,3.2c0,2,1.4,2.8,4.5,4
		c4.1,1.6,6.2,3.6,6.2,7.2c0,4.2-3.2,7.1-8.9,7.1c-2.6,0-5-0.6-6.7-1.6L22.3,150.9z"/>
	<path class="st2" d="M55.5,155.3l-0.3-3H55c-1.3,1.9-3.9,3.5-7.3,3.5c-4.8,0-7.3-3.4-7.3-6.8c0-5.7,5.1-8.9,14.3-8.8v-0.5
		c0-2-0.5-5.5-5.4-5.5c-2.2,0-4.5,0.7-6.2,1.8l-1-2.8c2-1.3,4.8-2.1,7.8-2.1c7.3,0,9,4.9,9,9.7v8.9c0,2.1,0.1,4.1,0.4,5.7H55.5z
		 M54.8,143.2c-4.7-0.1-10,0.7-10,5.3c0,2.8,1.9,4.1,4.1,4.1c3.1,0,5-2,5.7-4c0.1-0.4,0.2-0.9,0.2-1.4V143.2z"/>
	<path class="st2" d="M66,120.5h4.3v34.8H66V120.5z"/>
	<path class="st2" d="M98,131.5c-0.1,1.7-0.2,3.6-0.2,6.5v13.8c0,5.4-1.1,8.8-3.4,10.8c-2.3,2.2-5.6,2.8-8.6,2.8c-2.8,0-6-0.7-7.9-2
		l1.1-3.3c1.6,1,4,1.9,7,1.9c4.4,0,7.6-2.3,7.6-8.3v-2.6h-0.1c-1.3,2.2-3.9,4-7.5,4c-5.9,0-10.1-5-10.1-11.6c0-8,5.2-12.6,10.7-12.6
		c4.1,0,6.4,2.2,7.4,4.1H94l0.2-3.6H98z M93.5,140.9c0-0.7,0-1.4-0.2-2c-0.8-2.5-2.9-4.6-6-4.6c-4.1,0-7.1,3.5-7.1,9
		c0,4.7,2.4,8.5,7,8.5c2.6,0,5-1.7,6-4.4c0.2-0.7,0.3-1.6,0.3-2.3V140.9z"/>
	<path class="st2" d="M118,155.3l-0.3-3h-0.1c-1.3,1.9-3.9,3.5-7.3,3.5c-4.8,0-7.3-3.4-7.3-6.8c0-5.7,5.1-8.9,14.3-8.8v-0.5
		c0-2-0.5-5.5-5.4-5.5c-2.2,0-4.5,0.7-6.2,1.8l-1-2.8c2-1.3,4.8-2.1,7.8-2.1c7.3,0,9,4.9,9,9.7v8.9c0,2.1,0.1,4.1,0.4,5.7H118z
		 M117.4,143.2c-4.7-0.1-10,0.7-10,5.3c0,2.8,1.9,4.1,4.1,4.1c3.1,0,5-2,5.7-4c0.1-0.4,0.2-0.9,0.2-1.4V143.2z"/>
	<path class="st2" d="M128.5,138c0-2.5,0-4.5-0.2-6.4h3.8l0.2,3.9h0.1c1.2-2.3,3.9-4.5,7.8-4.5c3.3,0,8.4,2,8.4,10.1v14.2h-4.3
		v-13.7c0-3.8-1.4-7-5.5-7c-2.8,0-5,2-5.8,4.4c-0.2,0.5-0.3,1.3-0.3,2v14.3h-4.3V138z"/>
	<path class="st2" d="M183,154.4c-1.1,0.6-3.6,1.4-6.8,1.4c-7.2,0-11.8-4.9-11.8-12.1c0-7.3,5-12.6,12.7-12.6c2.5,0,4.8,0.6,6,1.2
		l-1,3.3c-1-0.6-2.6-1.1-5-1.1c-5.4,0-8.4,4-8.4,9c0,5.5,3.5,8.9,8.2,8.9c2.4,0,4.1-0.6,5.3-1.2L183,154.4z"/>
	<path class="st2" d="M209.2,143.2c0,8.8-6.1,12.6-11.8,12.6c-6.4,0-11.4-4.7-11.4-12.2c0-7.9,5.2-12.6,11.8-12.6
		C204.6,131,209.2,136,209.2,143.2z M190.4,143.5c0,5.2,3,9.1,7.2,9.1c4.1,0,7.2-3.9,7.2-9.2c0-4-2-9.1-7.1-9.1
		C192.6,134.2,190.4,138.9,190.4,143.5z"/>
	<path class="st2" d="M214.7,138c0-2.5,0-4.5-0.2-6.4h3.8l0.2,3.8h0.1c1.3-2.3,3.5-4.4,7.4-4.4c3.2,0,5.7,2,6.7,4.8h0.1
		c0.7-1.3,1.7-2.4,2.6-3.1c1.4-1.1,3-1.7,5.2-1.7c3.1,0,7.8,2.1,7.8,10.3v14h-4.2v-13.4c0-4.6-1.7-7.3-5.1-7.3
		c-2.5,0-4.4,1.8-5.1,3.9c-0.2,0.6-0.3,1.4-0.3,2.2v14.6h-4.2v-14.2c0-3.8-1.7-6.5-4.9-6.5c-2.7,0-4.7,2.2-5.3,4.3
		c-0.2,0.6-0.3,1.4-0.3,2.1v14.3h-4.2V138z"/>
	<path class="st2" d="M255.5,139.3c0-3-0.1-5.5-0.2-7.7h3.9l0.2,4.1h0.1c1.8-2.9,4.6-4.6,8.4-4.6c5.7,0,10,4.9,10,12.1
		c0,8.5-5.2,12.7-10.8,12.7c-3.1,0-5.9-1.4-7.3-3.7h-0.1V165h-4.3V139.3z M259.8,145.6c0,0.6,0.1,1.2,0.2,1.8c0.8,3,3.4,5,6.5,5
		c4.6,0,7.2-3.7,7.2-9.2c0-4.8-2.5-8.8-7.1-8.8c-2.9,0-5.7,2.1-6.5,5.3c-0.1,0.5-0.3,1.2-0.3,1.8V145.6z"/>
	<path class="st2" d="M283.4,120.5h4.3v34.8h-4.3V120.5z"/>
	<path class="st2" d="M297.4,144.2c0.1,5.8,3.8,8.2,8.1,8.2c3.1,0,4.9-0.5,6.6-1.2l0.7,3.1c-1.5,0.7-4.1,1.5-7.9,1.5
		c-7.3,0-11.7-4.8-11.7-12c0-7.2,4.2-12.8,11.1-12.8c7.7,0,9.8,6.8,9.8,11.2c0,0.9-0.1,1.6-0.1,2H297.4z M310,141.1c0-2.7-1.1-7-6-7
		c-4.4,0-6.3,4-6.6,7H310z"/>
	<path class="st2" d="M324.7,124.7v6.8h6.2v3.3h-6.2v12.8c0,2.9,0.8,4.6,3.2,4.6c1.1,0,2-0.1,2.5-0.3l0.2,3.2
		c-0.8,0.3-2.2,0.6-3.8,0.6c-2,0-3.6-0.6-4.7-1.8c-1.2-1.3-1.7-3.4-1.7-6.2v-12.9h-3.7v-3.3h3.7v-5.7L324.7,124.7z"/>
	<path class="st2" d="M348.9,155.3l-0.3-3h-0.1c-1.3,1.9-3.9,3.5-7.3,3.5c-4.8,0-7.3-3.4-7.3-6.8c0-5.7,5.1-8.9,14.3-8.8v-0.5
		c0-2-0.5-5.5-5.4-5.5c-2.2,0-4.5,0.7-6.2,1.8l-1-2.8c2-1.3,4.8-2.1,7.8-2.1c7.3,0,9,4.9,9,9.7v8.9c0,2.1,0.1,4.1,0.4,5.7H348.9z
		 M348.2,143.2c-4.7-0.1-10,0.7-10,5.3c0,2.8,1.9,4.1,4.1,4.1c3.1,0,5-2,5.7-4c0.1-0.4,0.2-0.9,0.2-1.4V143.2z"/>
	<path class="st2" d="M359.4,138c0-2.5,0-4.5-0.2-6.4h3.8l0.2,3.8h0.1c1.3-2.3,3.5-4.4,7.4-4.4c3.2,0,5.7,2,6.7,4.8h0.1
		c0.7-1.3,1.7-2.4,2.6-3.1c1.4-1.1,3-1.7,5.2-1.7c3.1,0,7.8,2.1,7.8,10.3v14H389v-13.4c0-4.6-1.7-7.3-5.1-7.3
		c-2.4,0-4.4,1.8-5.1,3.9c-0.2,0.6-0.3,1.4-0.3,2.2v14.6h-4.2v-14.2c0-3.8-1.7-6.5-4.9-6.5c-2.7,0-4.7,2.2-5.3,4.3
		c-0.2,0.6-0.3,1.4-0.3,2.1v14.3h-4.2V138z"/>
	<path class="st2" d="M402.6,144.2c0.1,5.8,3.8,8.2,8.1,8.2c3.1,0,4.9-0.5,6.6-1.2l0.7,3.1c-1.5,0.7-4.1,1.5-7.9,1.5
		c-7.3,0-11.7-4.8-11.7-12c0-7.2,4.2-12.8,11.1-12.8c7.7,0,9.8,6.8,9.8,11.2c0,0.9-0.1,1.6-0.1,2H402.6z M415.3,141.1
		c0-2.7-1.1-7-6-7c-4.4,0-6.3,4-6.6,7H415.3z"/>
	<path class="st2" d="M424.8,138c0-2.5,0-4.5-0.2-6.4h3.8l0.2,3.9h0.1c1.2-2.3,3.9-4.5,7.8-4.5c3.3,0,8.4,2,8.4,10.1v14.2h-4.3
		v-13.7c0-3.8-1.4-7-5.5-7c-2.8,0-5,2-5.8,4.4c-0.2,0.5-0.3,1.3-0.3,2v14.3h-4.3V138z"/>
	<path class="st2" d="M457,124.7v6.8h6.2v3.3H457v12.8c0,2.9,0.8,4.6,3.2,4.6c1.1,0,2-0.1,2.5-0.3l0.2,3.2c-0.8,0.3-2.2,0.6-3.8,0.6
		c-2,0-3.6-0.6-4.7-1.8c-1.2-1.3-1.7-3.4-1.7-6.2v-12.9h-3.7v-3.3h3.7v-5.7L457,124.7z"/>
	<path class="st2" d="M470.1,144.2c0.1,5.8,3.8,8.2,8.1,8.2c3.1,0,4.9-0.5,6.6-1.2l0.7,3.1c-1.5,0.7-4.1,1.5-7.9,1.5
		c-7.3,0-11.7-4.8-11.7-12c0-7.2,4.2-12.8,11.1-12.8c7.7,0,9.8,6.8,9.8,11.2c0,0.9-0.1,1.6-0.1,2H470.1z M482.7,141.1
		c0-2.7-1.1-7-6-7c-4.4,0-6.3,4-6.6,7H482.7z"/>
	<path class="st2" d="M502.1,150.9c1.3,0.8,3.5,1.7,5.7,1.7c3.1,0,4.6-1.6,4.6-3.5c0-2.1-1.2-3.2-4.4-4.4c-4.3-1.5-6.3-3.9-6.3-6.7
		c0-3.8,3.1-7,8.2-7c2.4,0,4.5,0.7,5.8,1.5l-1.1,3.1c-0.9-0.6-2.6-1.4-4.9-1.4c-2.5,0-4,1.5-4,3.2c0,2,1.4,2.8,4.5,4
		c4.1,1.6,6.2,3.6,6.2,7.2c0,4.2-3.2,7.1-8.9,7.1c-2.6,0-5-0.6-6.7-1.6L502.1,150.9z"/>
	<path class="st2" d="M535.2,155.3l-0.3-3h-0.1c-1.3,1.9-3.9,3.5-7.3,3.5c-4.8,0-7.3-3.4-7.3-6.8c0-5.7,5.1-8.9,14.3-8.8v-0.5
		c0-2-0.5-5.5-5.4-5.5c-2.2,0-4.5,0.7-6.2,1.8l-1-2.8c2-1.3,4.8-2.1,7.8-2.1c7.3,0,9,4.9,9,9.7v8.9c0,2.1,0.1,4.1,0.4,5.7H535.2z
		 M534.5,143.2c-4.7-0.1-10,0.7-10,5.3c0,2.8,1.9,4.1,4.1,4.1c3.1,0,5-2,5.7-4c0.1-0.4,0.2-0.9,0.2-1.4V143.2z"/>
	<path class="st2" d="M550.7,124.7v6.8h6.2v3.3h-6.2v12.8c0,2.9,0.8,4.6,3.2,4.6c1.1,0,2-0.1,2.5-0.3l0.2,3.2
		c-0.8,0.3-2.2,0.6-3.8,0.6c-2,0-3.6-0.6-4.7-1.8c-1.2-1.3-1.7-3.4-1.7-6.2v-12.9h-3.7v-3.3h3.7v-5.7L550.7,124.7z"/>
	<path class="st2" d="M566.5,124.9c0,1.5-1,2.6-2.7,2.6c-1.5,0-2.6-1.2-2.6-2.6c0-1.5,1.1-2.7,2.7-2.7
		C565.5,122.2,566.5,123.4,566.5,124.9z M561.7,155.3v-23.7h4.3v23.7H561.7z"/>
	<path class="st2" d="M572.6,150.9c1.3,0.8,3.5,1.7,5.7,1.7c3.1,0,4.6-1.6,4.6-3.5c0-2.1-1.2-3.2-4.4-4.4c-4.3-1.5-6.3-3.9-6.3-6.7
		c0-3.8,3.1-7,8.2-7c2.4,0,4.5,0.7,5.8,1.5l-1.1,3.1c-0.9-0.6-2.6-1.4-4.9-1.4c-2.5,0-4,1.5-4,3.2c0,2,1.4,2.8,4.5,4
		c4.1,1.6,6.2,3.6,6.2,7.2c0,4.2-3.2,7.1-8.9,7.1c-2.6,0-5-0.6-6.7-1.6L572.6,150.9z"/>
	<path class="st2" d="M593,155.3v-20.4h-3.3v-3.3h3.3v-1.1c0-3.3,0.7-6.4,2.7-8.3c1.6-1.6,3.8-2.2,5.8-2.2c1.5,0,2.8,0.3,3.7,0.7
		l-0.6,3.3c-0.6-0.3-1.5-0.5-2.7-0.5c-3.7,0-4.6,3.2-4.6,6.9v1.3h5.7v3.3h-5.7v20.4H593z"/>
	<path class="st2" d="M608.6,144.2c0.1,5.8,3.8,8.2,8.1,8.2c3.1,0,4.9-0.5,6.6-1.2l0.7,3.1c-1.5,0.7-4.1,1.5-7.9,1.5
		c-7.3,0-11.7-4.8-11.7-12c0-7.2,4.2-12.8,11.1-12.8c7.7,0,9.8,6.8,9.8,11.2c0,0.9-0.1,1.6-0.1,2H608.6z M621.3,141.1
		c0-2.7-1.1-7-6-7c-4.4,0-6.3,4-6.6,7H621.3z"/>
	<path class="st2" d="M647.7,154.4c-1.1,0.6-3.6,1.4-6.8,1.4c-7.2,0-11.8-4.9-11.8-12.1c0-7.3,5-12.6,12.7-12.6c2.5,0,4.8,0.6,6,1.2
		l-1,3.3c-1-0.6-2.6-1.1-5-1.1c-5.4,0-8.4,4-8.4,9c0,5.5,3.5,8.9,8.2,8.9c2.4,0,4.1-0.6,5.3-1.2L647.7,154.4z"/>
	<path class="st2" d="M652.7,120.5h4.3v14.8h0.1c0.7-1.2,1.8-2.3,3.1-3c1.3-0.7,2.8-1.2,4.4-1.2c3.2,0,8.3,2,8.3,10.1v14.1h-4.3
		v-13.6c0-3.8-1.4-7.1-5.5-7.1c-2.8,0-5,2-5.8,4.3c-0.2,0.6-0.3,1.2-0.3,2.1v14.3h-4.3V120.5z"/>
	<path class="st2" d="M701.4,143.2c0,8.8-6.1,12.6-11.8,12.6c-6.4,0-11.4-4.7-11.4-12.2c0-7.9,5.2-12.6,11.8-12.6
		C696.8,131,701.4,136,701.4,143.2z M682.6,143.5c0,5.2,3,9.1,7.2,9.1c4.1,0,7.2-3.9,7.2-9.2c0-4-2-9.1-7.1-9.1
		S682.6,138.9,682.6,143.5z"/>
	<path class="st2" d="M706.2,150.9c1.3,0.8,3.5,1.7,5.7,1.7c3.1,0,4.6-1.6,4.6-3.5c0-2.1-1.2-3.2-4.4-4.4c-4.3-1.5-6.3-3.9-6.3-6.7
		c0-3.8,3.1-7,8.2-7c2.4,0,4.5,0.7,5.8,1.5l-1.1,3.1c-0.9-0.6-2.6-1.4-4.9-1.4c-2.5,0-4,1.5-4,3.2c0,2,1.4,2.8,4.5,4
		c4.1,1.6,6.2,3.6,6.2,7.2c0,4.2-3.2,7.1-8.9,7.1c-2.6,0-5-0.6-6.7-1.6L706.2,150.9z"/>
	<path class="st2" d="M738.2,131.5l5.2,14c0.5,1.6,1.1,3.4,1.5,4.9h0.1c0.4-1.4,0.9-3.2,1.5-4.9l4.7-13.9h4.6l-6.5,16.9
		c-3.1,8.1-5.2,12.3-8.1,14.8c-2.1,1.9-4.2,2.6-5.3,2.8l-1.1-3.6c1.1-0.3,2.5-1,3.8-2.1c1.2-0.9,2.6-2.6,3.6-4.8
		c0.2-0.4,0.3-0.8,0.3-1s-0.1-0.6-0.3-1.1l-8.8-21.9H738.2z"/>
	<path class="st2" d="M772.5,144.2c0.1,5.8,3.8,8.2,8.1,8.2c3.1,0,4.9-0.5,6.6-1.2l0.7,3.1c-1.5,0.7-4.1,1.5-7.9,1.5
		c-7.3,0-11.7-4.8-11.7-12c0-7.2,4.2-12.8,11.1-12.8c7.7,0,9.8,6.8,9.8,11.2c0,0.9-0.1,1.6-0.1,2H772.5z M785.1,141.1
		c0-2.7-1.1-7-6-7c-4.4,0-6.3,4-6.6,7H785.1z"/>
	<path class="st2" d="M794.6,138c0-2.5,0-4.5-0.2-6.4h3.8l0.2,3.9h0.1c1.2-2.3,3.9-4.5,7.8-4.5c3.3,0,8.4,2,8.4,10.1v14.2h-4.3
		v-13.7c0-3.8-1.4-7-5.5-7c-2.8,0-5,2-5.8,4.4c-0.2,0.5-0.3,1.3-0.3,2v14.3h-4.3V138z"/>
	<path class="st2" d="M835,155.3l-0.3-3h-0.1c-1.3,1.9-3.9,3.5-7.3,3.5c-4.8,0-7.3-3.4-7.3-6.8c0-5.7,5.1-8.9,14.3-8.8v-0.5
		c0-2-0.5-5.5-5.4-5.5c-2.2,0-4.5,0.7-6.2,1.8l-1-2.8c2-1.3,4.8-2.1,7.8-2.1c7.3,0,9,4.9,9,9.7v8.9c0,2.1,0.1,4.1,0.4,5.7H835z
		 M834.3,143.2c-4.7-0.1-10,0.7-10,5.3c0,2.8,1.9,4.1,4.1,4.1c3.1,0,5-2,5.7-4c0.1-0.4,0.2-0.9,0.2-1.4V143.2z"/>
	<path class="st2" d="M845.4,138c0-2.5,0-4.5-0.2-6.4h3.8l0.2,3.8h0.1c1.3-2.3,3.5-4.4,7.4-4.4c3.2,0,5.7,2,6.7,4.8h0.1
		c0.7-1.3,1.7-2.4,2.6-3.1c1.4-1.1,3-1.7,5.2-1.7c3.1,0,7.8,2.1,7.8,10.3v14h-4.2v-13.4c0-4.6-1.7-7.3-5.1-7.3
		c-2.4,0-4.4,1.8-5.1,3.9c-0.2,0.6-0.3,1.4-0.3,2.2v14.6h-4.2v-14.2c0-3.8-1.7-6.5-4.9-6.5c-2.7,0-4.7,2.2-5.3,4.3
		c-0.2,0.6-0.3,1.4-0.3,2.1v14.3h-4.2V138z"/>
	<path class="st2" d="M907.8,143.2c0,8.8-6.1,12.6-11.8,12.6c-6.4,0-11.4-4.7-11.4-12.2c0-7.9,5.2-12.6,11.8-12.6
		C903.2,131,907.8,136,907.8,143.2z M889,143.5c0,5.2,3,9.1,7.2,9.1c4.1,0,7.2-3.9,7.2-9.2c0-4-2-9.1-7.1-9.1S889,138.9,889,143.5z"
		/>
	<path class="st2" d="M913.2,138.9c0-2.8,0-5.2-0.2-7.4h3.8l0.1,4.7h0.2c1.1-3.2,3.7-5.2,6.6-5.2c0.5,0,0.8,0,1.2,0.1v4.1
		c-0.4-0.1-0.9-0.1-1.5-0.1c-3,0-5.2,2.3-5.8,5.5c-0.1,0.6-0.2,1.3-0.2,2v12.6h-4.3V138.9z"/>
	<path class="st2" d="M942.1,155.3l-0.3-3h-0.1c-1.3,1.9-3.9,3.5-7.3,3.5c-4.8,0-7.3-3.4-7.3-6.8c0-5.7,5.1-8.9,14.3-8.8v-0.5
		c0-2-0.5-5.5-5.4-5.5c-2.2,0-4.5,0.7-6.2,1.8l-1-2.8c2-1.3,4.8-2.1,7.8-2.1c7.3,0,9,4.9,9,9.7v8.9c0,2.1,0.1,4.1,0.4,5.7H942.1z
		 M941.5,143.2c-4.7-0.1-10,0.7-10,5.3c0,2.8,1.9,4.1,4.1,4.1c3.1,0,5-2,5.7-4c0.1-0.4,0.2-0.9,0.2-1.4V143.2z"/>
	<path class="st2" d="M973.1,120.5v28.7c0,2.1,0,4.5,0.2,6.1h-3.9l-0.2-4.1h-0.1c-1.3,2.6-4.2,4.7-8.1,4.7
		c-5.7,0-10.1-4.9-10.1-12.1c0-7.9,4.9-12.7,10.6-12.7c3.6,0,6.1,1.7,7.2,3.6h0.1v-14.2H973.1z M968.8,141.2c0-0.5,0-1.3-0.2-1.8
		c-0.6-2.7-3-5-6.2-5c-4.5,0-7.1,3.9-7.1,9.2c0,4.8,2.4,8.8,7,8.8c2.9,0,5.5-1.9,6.3-5.1c0.1-0.6,0.2-1.2,0.2-1.9V141.2z"/>
	<path class="st2" d="M1001.7,143.2c0,8.8-6.1,12.6-11.8,12.6c-6.4,0-11.4-4.7-11.4-12.2c0-7.9,5.2-12.6,11.8-12.6
		C997.1,131,1001.7,136,1001.7,143.2z M982.9,143.5c0,5.2,3,9.1,7.2,9.1c4.1,0,7.2-3.9,7.2-9.2c0-4-2-9.1-7.1-9.1
		S982.9,138.9,982.9,143.5z"/>
	<path class="st2" d="M1006.6,150.9c1.3,0.8,3.5,1.7,5.7,1.7c3.1,0,4.6-1.6,4.6-3.5c0-2.1-1.2-3.2-4.4-4.4c-4.3-1.5-6.3-3.9-6.3-6.7
		c0-3.8,3.1-7,8.2-7c2.4,0,4.5,0.7,5.8,1.5l-1.1,3.1c-0.9-0.6-2.6-1.4-4.9-1.4c-2.5,0-4,1.5-4,3.2c0,2,1.4,2.8,4.5,4
		c4.1,1.6,6.2,3.6,6.2,7.2c0,4.2-3.2,7.1-8.9,7.1c-2.6,0-5-0.6-6.7-1.6L1006.6,150.9z"/>
	<path class="st2" d="M1057.4,120.5v28.7c0,2.1,0,4.5,0.2,6.1h-3.9l-0.2-4.1h-0.1c-1.3,2.6-4.2,4.7-8.1,4.7
		c-5.7,0-10.1-4.9-10.1-12.1c0-7.9,4.8-12.7,10.6-12.7c3.6,0,6.1,1.7,7.2,3.6h0.1v-14.2H1057.4z M1053.1,141.2c0-0.5,0-1.3-0.2-1.8
		c-0.6-2.7-3-5-6.2-5c-4.5,0-7.1,3.9-7.1,9.2c0,4.8,2.4,8.8,7,8.8c2.9,0,5.5-1.9,6.3-5.1c0.1-0.6,0.2-1.2,0.2-1.9V141.2z"/>
	<path class="st2" d="M1067,144.2c0.1,5.8,3.8,8.2,8.1,8.2c3.1,0,4.9-0.5,6.6-1.2l0.7,3.1c-1.5,0.7-4.1,1.5-7.9,1.5
		c-7.3,0-11.7-4.8-11.7-12c0-7.2,4.2-12.8,11.1-12.8c7.7,0,9.8,6.8,9.8,11.2c0,0.9-0.1,1.6-0.1,2H1067z M1079.6,141.1
		c0-2.7-1.1-7-6-7c-4.4,0-6.3,4-6.6,7H1079.6z"/>
	<path class="st2" d="M1098.9,150.9c1.3,0.8,3.5,1.7,5.7,1.7c3.1,0,4.6-1.6,4.6-3.5c0-2.1-1.2-3.2-4.4-4.4c-4.3-1.5-6.3-3.9-6.3-6.7
		c0-3.8,3.1-7,8.2-7c2.4,0,4.5,0.7,5.8,1.5l-1.1,3.1c-0.9-0.6-2.6-1.4-4.9-1.4c-2.5,0-4,1.5-4,3.2c0,2,1.4,2.8,4.5,4
		c4.1,1.6,6.2,3.6,6.2,7.2c0,4.2-3.2,7.1-8.9,7.1c-2.6,0-5-0.6-6.7-1.6L1098.9,150.9z"/>
	<path class="st2" d="M1138.7,148.8c0,2.4,0,4.6,0.2,6.5h-3.8l-0.2-3.9h-0.1c-1.1,1.9-3.6,4.4-7.8,4.4c-3.7,0-8.2-2.1-8.2-10.4
		v-13.9h4.3v13.1c0,4.5,1.4,7.5,5.3,7.5c2.9,0,4.9-2,5.7-3.9c0.2-0.6,0.4-1.4,0.4-2.2v-14.6h4.3V148.8z"/>
	<path class="st2" d="M22.3,201.9c1.3,0.8,3.5,1.7,5.7,1.7c3.1,0,4.6-1.6,4.6-3.5c0-2.1-1.2-3.2-4.4-4.4c-4.3-1.5-6.3-3.9-6.3-6.7
		c0-3.8,3.1-7,8.2-7c2.4,0,4.5,0.7,5.8,1.5l-1.1,3.1c-0.9-0.6-2.6-1.4-4.9-1.4c-2.5,0-4,1.5-4,3.2c0,2,1.4,2.8,4.5,4
		c4.1,1.6,6.2,3.6,6.2,7.2c0,4.2-3.2,7.1-8.9,7.1c-2.6,0-5-0.6-6.7-1.6L22.3,201.9z"/>
	<path class="st2" d="M63.8,194.2c0,8.8-6.1,12.6-11.8,12.6c-6.4,0-11.4-4.7-11.4-12.2c0-7.9,5.2-12.6,11.8-12.6
		C59.2,182,63.8,187,63.8,194.2z M45,194.5c0,5.2,3,9.1,7.2,9.1c4.1,0,7.2-3.9,7.2-9.2c0-4-2-9.1-7.1-9.1
		C47.2,185.2,45,189.9,45,194.5z"/>
	<path class="st2" d="M69.2,189c0-2.5,0-4.5-0.2-6.4h3.8l0.2,3.9h0.1c1.2-2.3,3.9-4.5,7.8-4.5c3.3,0,8.4,2,8.4,10.1v14.2h-4.3v-13.7
		c0-3.8-1.4-7-5.5-7c-2.8,0-5,2-5.8,4.4c-0.2,0.5-0.3,1.3-0.3,2v14.3h-4.3V189z"/>
	<path class="st2" d="M96.4,189.9c0-2.8,0-5.2-0.2-7.4h3.8l0.1,4.7h0.2c1.1-3.2,3.7-5.2,6.6-5.2c0.5,0,0.8,0,1.2,0.1v4.1
		c-0.4-0.1-0.9-0.1-1.5-0.1c-3,0-5.2,2.3-5.8,5.5c-0.1,0.6-0.2,1.3-0.2,2v12.6h-4.3V189.9z"/>
	<path class="st2" d="M117.5,175.9c0,1.5-1,2.6-2.7,2.6c-1.5,0-2.6-1.2-2.6-2.6c0-1.5,1.1-2.7,2.7-2.7
		C116.4,173.2,117.5,174.4,117.5,175.9z M112.7,206.3v-23.7h4.3v23.7H112.7z"/>
	<path class="st2" d="M123.5,201.9c1.3,0.8,3.5,1.7,5.7,1.7c3.1,0,4.6-1.6,4.6-3.5c0-2.1-1.2-3.2-4.4-4.4c-4.3-1.5-6.3-3.9-6.3-6.7
		c0-3.8,3.1-7,8.2-7c2.4,0,4.5,0.7,5.8,1.5l-1.1,3.1c-0.9-0.6-2.6-1.4-4.9-1.4c-2.5,0-4,1.5-4,3.2c0,2,1.4,2.8,4.5,4
		c4.1,1.6,6.2,3.6,6.2,7.2c0,4.2-3.2,7.1-8.9,7.1c-2.6,0-5-0.6-6.7-1.6L123.5,201.9z"/>
	<path class="st2" d="M156.7,206.3l-0.3-3h-0.1c-1.3,1.9-3.9,3.5-7.3,3.5c-4.8,0-7.3-3.4-7.3-6.8c0-5.7,5.1-8.9,14.3-8.8v-0.5
		c0-2-0.5-5.5-5.4-5.5c-2.2,0-4.5,0.7-6.2,1.8l-1-2.8c2-1.3,4.8-2.1,7.8-2.1c7.3,0,9,4.9,9,9.7v8.9c0,2.1,0.1,4.1,0.4,5.7H156.7z
		 M156,194.2c-4.7-0.1-10,0.7-10,5.3c0,2.8,1.9,4.1,4.1,4.1c3.1,0,5-2,5.7-4c0.1-0.4,0.2-0.9,0.2-1.4V194.2z"/>
	<path class="st2" d="M166.1,203.7c0-1.8,1.2-3.1,2.9-3.1s2.9,1.3,2.9,3.1c0,1.8-1.1,3.1-2.9,3.1
		C167.3,206.8,166.1,205.5,166.1,203.7z"/>
</g>
<g>
</g>
<g>
</g>
<g>
</g>
<g>
</g>
<g>
</g>
<g>
</g>
<g>
</g>
<g>
</g>
<g>
</g>
<g>
</g>
<g>
</g>
<g>
</g>
<g>
</g>
<g>
</g>
<g>
</g>
</svg>
