<?xml version="1.0" encoding="utf-8"?>
<!-- Generator: Adobe Illustrator 22.0.1, SVG Export Plug-In . SVG Version: 6.00 Build 0)  -->
<svg version="1.1" id="Capa_1" xmlns="http://www.w3.org/2000/svg" xmlns:xlink="http://www.w3.org/1999/xlink" x="0px" y="0px"
	 viewBox="0 0 1166.8 298.3" style="enable-background:new 0 0 1166.8 298.3;" xml:space="preserve">
<style type="text/css">
	.st0{fill:#F2F1F3;}
	.st1{fill:none;}
	.st2{fill:#1D1D1B;}
</style>
<rect x="-0.2" y="0.2" class="st0" width="1167.2" height="298"/>
<g>
	<rect x="19.4" y="35.5" class="st1" width="1144.1" height="306.7"/>
	<path class="st2" d="M32.9,55.4v3.2H20.8v-3.2H32.9z"/>
	<path class="st2" d="M76.3,55.8c-0.2-4.6-0.5-10.1-0.5-14.3h-0.1c-1.1,3.9-2.5,8-4.2,12.5l-5.8,16h-3.2l-5.3-15.7
		c-1.6-4.7-2.9-8.9-3.8-12.8h-0.1c-0.1,4.1-0.3,9.7-0.6,14.6l-0.9,14.2h-4.1l2.3-33h5.4l5.6,16c1.4,4.1,2.5,7.7,3.3,11.1h0.1
		c0.8-3.3,2-7,3.5-11.1l5.9-16h5.4l2.1,33h-4.2L76.3,55.8z"/>
	<path class="st2" d="M93.2,39.9c0,1.5-1,2.6-2.7,2.6c-1.5,0-2.6-1.2-2.6-2.6c0-1.5,1.1-2.7,2.7-2.7C92.1,37.2,93.2,38.4,93.2,39.9z
		 M88.3,70.3V46.5h4.3v23.7H88.3z"/>
	<path class="st2" d="M99.2,65.9c1.3,0.8,3.5,1.7,5.7,1.7c3.1,0,4.6-1.6,4.6-3.5c0-2.1-1.2-3.2-4.4-4.4c-4.3-1.5-6.3-3.9-6.3-6.7
		c0-3.8,3.1-7,8.2-7c2.4,0,4.5,0.7,5.8,1.5l-1.1,3.1c-0.9-0.6-2.6-1.4-4.9-1.4c-2.5,0-4,1.5-4,3.2c0,2,1.4,2.8,4.5,4
		c4.1,1.6,6.2,3.6,6.2,7.2c0,4.2-3.2,7.1-8.9,7.1c-2.6,0-5-0.6-6.7-1.6L99.2,65.9z"/>
	<path class="st2" d="M124,39.9c0,1.5-1,2.6-2.7,2.6c-1.5,0-2.6-1.2-2.6-2.6c0-1.5,1.1-2.7,2.7-2.7C123,37.2,124,38.4,124,39.9z
		 M119.2,70.3V46.5h4.3v23.7H119.2z"/>
	<path class="st2" d="M152.1,58.2c0,8.8-6.1,12.6-11.8,12.6c-6.4,0-11.4-4.7-11.4-12.2c0-7.9,5.2-12.6,11.8-12.6
		C147.5,46,152.1,51,152.1,58.2z M133.3,58.5c0,5.2,3,9.1,7.2,9.1c4.1,0,7.2-3.9,7.2-9.2c0-4-2-9.1-7.1-9.1S133.3,53.9,133.3,58.5z
		 M147,36.3l-6,7h-3.1l4.3-7H147z"/>
	<path class="st2" d="M157.6,53c0-2.5,0-4.5-0.2-6.4h3.8l0.2,3.9h0.1c1.2-2.3,3.9-4.5,7.8-4.5c3.3,0,8.4,2,8.4,10.1v14.2h-4.3V56.6
		c0-3.8-1.4-7-5.5-7c-2.8,0-5,2-5.8,4.4c-0.2,0.5-0.3,1.3-0.3,2v14.3h-4.3V53z"/>
	<path class="st2" d="M183.8,50.5c0-1.8,1.2-3.1,2.9-3.1s2.8,1.3,2.9,3.1c0,1.7-1.1,3-2.9,3C184.9,53.5,183.8,52.2,183.8,50.5z
		 M183.8,67.8c0-1.8,1.2-3.1,2.9-3.1s2.8,1.3,2.9,3.1c0,1.7-1.1,3-2.9,3C184.9,70.8,183.8,69.5,183.8,67.8z"/>
	<path class="st2" d="M209.7,37.2v13.8h16V37.2h4.3v33h-4.3V54.8h-16v15.5h-4.3v-33H209.7z"/>
	<path class="st2" d="M250.4,70.3l-0.3-3h-0.1c-1.3,1.9-3.9,3.5-7.3,3.5c-4.8,0-7.3-3.4-7.3-6.8c0-5.7,5.1-8.9,14.3-8.8v-0.5
		c0-2-0.5-5.5-5.4-5.5c-2.2,0-4.5,0.7-6.2,1.8l-1-2.8c2-1.3,4.8-2.1,7.8-2.1c7.3,0,9,4.9,9,9.7v8.9c0,2.1,0.1,4.1,0.4,5.7H250.4z
		 M249.8,58.2c-4.7-0.1-10,0.7-10,5.3c0,2.8,1.9,4.1,4.1,4.1c3.1,0,5-2,5.7-4c0.1-0.4,0.2-0.9,0.2-1.4V58.2z"/>
	<path class="st2" d="M277.8,69.4c-1.1,0.6-3.6,1.4-6.8,1.4c-7.2,0-11.8-4.9-11.8-12.1c0-7.3,5-12.6,12.7-12.6c2.5,0,4.8,0.6,6,1.2
		l-1,3.3c-1-0.6-2.6-1.1-5-1.1c-5.4,0-8.4,4-8.4,9c0,5.5,3.5,8.9,8.2,8.9c2.4,0,4.1-0.6,5.3-1.2L277.8,69.4z"/>
	<path class="st2" d="M284.9,59.2c0.1,5.8,3.8,8.2,8.1,8.2c3.1,0,4.9-0.5,6.6-1.2l0.7,3.1c-1.5,0.7-4.1,1.5-7.9,1.5
		c-7.3,0-11.7-4.8-11.7-12c0-7.2,4.2-12.8,11.1-12.8c7.7,0,9.8,6.8,9.8,11.2c0,0.9-0.1,1.6-0.1,2H284.9z M297.6,56.1
		c0-2.7-1.1-7-6-7c-4.4,0-6.3,4-6.6,7H297.6z"/>
	<path class="st2" d="M307.1,53.9c0-2.8,0-5.2-0.2-7.4h3.8l0.1,4.7h0.2c1.1-3.2,3.7-5.2,6.6-5.2c0.5,0,0.8,0,1.2,0.1v4.1
		c-0.4-0.1-0.9-0.1-1.5-0.1c-3,0-5.2,2.3-5.8,5.5c-0.1,0.6-0.2,1.3-0.2,2v12.6h-4.3V53.9z"/>
	<path class="st2" d="M332.9,65.9c1.3,0.8,3.5,1.7,5.7,1.7c3.1,0,4.6-1.6,4.6-3.5c0-2.1-1.2-3.2-4.4-4.4c-4.3-1.5-6.3-3.9-6.3-6.7
		c0-3.8,3.1-7,8.2-7c2.4,0,4.5,0.7,5.8,1.5l-1.1,3.1c-0.9-0.6-2.6-1.4-4.9-1.4c-2.5,0-4,1.5-4,3.2c0,2,1.4,2.8,4.5,4
		c4.1,1.6,6.2,3.6,6.2,7.2c0,4.2-3.2,7.1-8.9,7.1c-2.6,0-5-0.6-6.7-1.6L332.9,65.9z"/>
	<path class="st2" d="M374.4,58.2c0,8.8-6.1,12.6-11.8,12.6c-6.4,0-11.4-4.7-11.4-12.2c0-7.9,5.2-12.6,11.8-12.6
		C369.8,46,374.4,51,374.4,58.2z M355.5,58.5c0,5.2,3,9.1,7.2,9.1c4.1,0,7.2-3.9,7.2-9.2c0-4-2-9.1-7.1-9.1S355.5,53.9,355.5,58.5z"
		/>
	<path class="st2" d="M379.8,53c0-2.5,0-4.5-0.2-6.4h3.8l0.2,3.9h0.1c1.2-2.3,3.9-4.5,7.8-4.5c3.3,0,8.4,2,8.4,10.1v14.2h-4.3V56.6
		c0-3.8-1.4-7-5.5-7c-2.8,0-5,2-5.8,4.4c-0.2,0.5-0.3,1.3-0.3,2v14.3h-4.3V53z"/>
	<path class="st2" d="M407,53.9c0-2.8,0-5.2-0.2-7.4h3.8l0.1,4.7h0.2c1.1-3.2,3.7-5.2,6.6-5.2c0.5,0,0.8,0,1.2,0.1v4.1
		c-0.4-0.1-0.9-0.1-1.5-0.1c-3,0-5.2,2.3-5.8,5.5c-0.1,0.6-0.2,1.3-0.2,2v12.6H407V53.9z"/>
	<path class="st2" d="M424.9,59.2c0.1,5.8,3.8,8.2,8.1,8.2c3.1,0,4.9-0.5,6.6-1.2l0.7,3.1c-1.5,0.7-4.1,1.5-7.9,1.5
		c-7.3,0-11.7-4.8-11.7-12c0-7.2,4.2-12.8,11.1-12.8c7.7,0,9.8,6.8,9.8,11.2c0,0.9-0.1,1.6-0.1,2H424.9z M437.6,56.1
		c0-2.7-1.1-7-6-7c-4.4,0-6.3,4-6.6,7H437.6z"/>
	<path class="st2" d="M455.8,36.3l-6,7h-3.1l4.3-7H455.8z M447.1,70.3V46.5h4.3v23.7H447.1z"/>
	<path class="st2" d="M458.5,53.9c0-2.8,0-5.2-0.2-7.4h3.8l0.1,4.7h0.2c1.1-3.2,3.7-5.2,6.6-5.2c0.5,0,0.8,0,1.2,0.1v4.1
		c-0.4-0.1-0.9-0.1-1.5-0.1c-3,0-5.2,2.3-5.8,5.5c-0.1,0.6-0.2,1.3-0.2,2v12.6h-4.3V53.9z"/>
	<path class="st2" d="M498.1,70.3l-0.3-3h-0.1c-1.3,1.9-3.9,3.5-7.3,3.5c-4.8,0-7.3-3.4-7.3-6.8c0-5.7,5.1-8.9,14.3-8.8v-0.5
		c0-2-0.5-5.5-5.4-5.5c-2.2,0-4.5,0.7-6.2,1.8l-1-2.8c2-1.3,4.8-2.1,7.8-2.1c7.3,0,9,4.9,9,9.7v8.9c0,2.1,0.1,4.1,0.4,5.7H498.1z
		 M497.4,58.2c-4.7-0.1-10,0.7-10,5.3c0,2.8,1.9,4.1,4.1,4.1c3.1,0,5-2,5.7-4c0.1-0.4,0.2-0.9,0.2-1.4V58.2z"/>
	<path class="st2" d="M519,53c0-2.5,0-4.5-0.2-6.4h3.8l0.2,3.9h0.1c1.2-2.3,3.9-4.5,7.8-4.5c3.3,0,8.4,2,8.4,10.1v14.2h-4.3V56.6
		c0-3.8-1.4-7-5.5-7c-2.8,0-5,2-5.8,4.4c-0.2,0.5-0.3,1.3-0.3,2v14.3H519V53z"/>
	<path class="st2" d="M566,63.8c0,2.4,0,4.6,0.2,6.5h-3.8l-0.2-3.9H562c-1.1,1.9-3.6,4.4-7.8,4.4c-3.7,0-8.2-2.1-8.2-10.4V46.5h4.3
		v13.1c0,4.5,1.4,7.5,5.3,7.5c2.9,0,4.9-2,5.7-3.9c0.2-0.6,0.4-1.4,0.4-2.2V46.5h4.3V63.8z"/>
	<path class="st2" d="M575.5,59.2c0.1,5.8,3.8,8.2,8.1,8.2c3.1,0,4.9-0.5,6.6-1.2l0.7,3.1c-1.5,0.7-4.1,1.5-7.9,1.5
		c-7.3,0-11.7-4.8-11.7-12c0-7.2,4.2-12.8,11.1-12.8c7.7,0,9.8,6.8,9.8,11.2c0,0.9-0.1,1.6-0.1,2H575.5z M588.2,56.1
		c0-2.7-1.1-7-6-7c-4.4,0-6.3,4-6.6,7H588.2z"/>
	<path class="st2" d="M597.1,65.9c1.3,0.8,3.5,1.7,5.7,1.7c3.1,0,4.6-1.6,4.6-3.5c0-2.1-1.2-3.2-4.4-4.4c-4.3-1.5-6.3-3.9-6.3-6.7
		c0-3.8,3.1-7,8.2-7c2.4,0,4.5,0.7,5.8,1.5l-1.1,3.1c-0.9-0.6-2.6-1.4-4.9-1.4c-2.5,0-4,1.5-4,3.2c0,2,1.4,2.8,4.5,4
		c4.1,1.6,6.2,3.6,6.2,7.2c0,4.2-3.2,7.1-8.9,7.1c-2.6,0-5-0.6-6.7-1.6L597.1,65.9z"/>
	<path class="st2" d="M622.3,39.7v6.8h6.2v3.3h-6.2v12.8c0,2.9,0.8,4.6,3.2,4.6c1.1,0,2-0.1,2.5-0.3l0.2,3.2
		c-0.8,0.3-2.2,0.6-3.8,0.6c-2,0-3.6-0.6-4.7-1.8c-1.2-1.3-1.7-3.4-1.7-6.2V49.8h-3.7v-3.3h3.7v-5.7L622.3,39.7z"/>
	<path class="st2" d="M633.3,53.9c0-2.8,0-5.2-0.2-7.4h3.8l0.1,4.7h0.2c1.1-3.2,3.7-5.2,6.6-5.2c0.5,0,0.8,0,1.2,0.1v4.1
		c-0.4-0.1-0.9-0.1-1.5-0.1c-3,0-5.2,2.3-5.8,5.5c-0.1,0.6-0.2,1.3-0.2,2v12.6h-4.3V53.9z"/>
	<path class="st2" d="M670.3,58.2c0,8.8-6.1,12.6-11.8,12.6c-6.4,0-11.4-4.7-11.4-12.2c0-7.9,5.2-12.6,11.8-12.6
		C665.7,46,670.3,51,670.3,58.2z M651.5,58.5c0,5.2,3,9.1,7.2,9.1c4.1,0,7.2-3.9,7.2-9.2c0-4-2-9.1-7.1-9.1S651.5,53.9,651.5,58.5z"
		/>
	<path class="st2" d="M675.2,65.9c1.3,0.8,3.5,1.7,5.7,1.7c3.1,0,4.6-1.6,4.6-3.5c0-2.1-1.2-3.2-4.4-4.4c-4.3-1.5-6.3-3.9-6.3-6.7
		c0-3.8,3.1-7,8.2-7c2.4,0,4.5,0.7,5.8,1.5l-1.1,3.1c-0.9-0.6-2.6-1.4-4.9-1.4c-2.5,0-4,1.5-4,3.2c0,2,1.4,2.8,4.5,4
		c4.1,1.6,6.2,3.6,6.2,7.2c0,4.2-3.2,7.1-8.9,7.1c-2.6,0-5-0.6-6.7-1.6L675.2,65.9z"/>
	<path class="st2" d="M705.5,54.3c0-3-0.1-5.5-0.2-7.7h3.9l0.2,4.1h0.1c1.8-2.9,4.6-4.6,8.4-4.6c5.7,0,10,4.9,10,12.1
		c0,8.5-5.2,12.7-10.8,12.7c-3.1,0-5.9-1.4-7.3-3.7h-0.1V80h-4.3V54.3z M709.8,60.6c0,0.6,0.1,1.2,0.2,1.8c0.8,3,3.4,5,6.5,5
		c4.6,0,7.2-3.7,7.2-9.2c0-4.8-2.5-8.8-7.1-8.8c-2.9,0-5.7,2.1-6.5,5.3c-0.1,0.5-0.3,1.2-0.3,1.8V60.6z"/>
	<path class="st2" d="M746.6,70.3l-0.3-3h-0.1c-1.3,1.9-3.9,3.5-7.3,3.5c-4.8,0-7.3-3.4-7.3-6.8c0-5.7,5.1-8.9,14.3-8.8v-0.5
		c0-2-0.5-5.5-5.4-5.5c-2.2,0-4.5,0.7-6.2,1.8l-1-2.8c2-1.3,4.8-2.1,7.8-2.1c7.3,0,9,4.9,9,9.7v8.9c0,2.1,0.1,4.1,0.4,5.7H746.6z
		 M745.9,58.2c-4.7-0.1-10,0.7-10,5.3c0,2.8,1.9,4.1,4.1,4.1c3.1,0,5-2,5.7-4c0.1-0.4,0.2-0.9,0.2-1.4V58.2z"/>
	<path class="st2" d="M773.9,69.4c-1.1,0.6-3.6,1.4-6.8,1.4c-7.2,0-11.8-4.9-11.8-12.1c0-7.3,5-12.6,12.7-12.6c2.5,0,4.8,0.6,6,1.2
		l-1,3.3c-1-0.6-2.6-1.1-5-1.1c-5.4,0-8.4,4-8.4,9c0,5.5,3.5,8.9,8.2,8.9c2.4,0,4.1-0.6,5.3-1.2L773.9,69.4z"/>
	<path class="st2" d="M783.8,39.9c0,1.5-1,2.6-2.7,2.6c-1.5,0-2.6-1.2-2.6-2.6c0-1.5,1.1-2.7,2.7-2.7
		C782.8,37.2,783.8,38.4,783.8,39.9z M779,70.3V46.5h4.3v23.7H779z"/>
	<path class="st2" d="M792.9,59.2c0.1,5.8,3.8,8.2,8.1,8.2c3.1,0,4.9-0.5,6.6-1.2l0.7,3.1c-1.5,0.7-4.1,1.5-7.9,1.5
		c-7.3,0-11.7-4.8-11.7-12c0-7.2,4.2-12.8,11.1-12.8c7.7,0,9.8,6.8,9.8,11.2c0,0.9-0.1,1.6-0.1,2H792.9z M805.5,56.1
		c0-2.7-1.1-7-6-7c-4.4,0-6.3,4-6.6,7H805.5z"/>
	<path class="st2" d="M815,53c0-2.5,0-4.5-0.2-6.4h3.8l0.2,3.9h0.1c1.2-2.3,3.9-4.5,7.8-4.5c3.3,0,8.4,2,8.4,10.1v14.2h-4.3V56.6
		c0-3.8-1.4-7-5.5-7c-2.8,0-5,2-5.8,4.4c-0.2,0.5-0.3,1.3-0.3,2v14.3H815V53z"/>
	<path class="st2" d="M847.2,39.7v6.8h6.2v3.3h-6.2v12.8c0,2.9,0.8,4.6,3.2,4.6c1.1,0,2-0.1,2.5-0.3l0.2,3.2
		c-0.8,0.3-2.2,0.6-3.8,0.6c-2,0-3.6-0.6-4.7-1.8c-1.2-1.3-1.7-3.4-1.7-6.2V49.8h-3.7v-3.3h3.7v-5.7L847.2,39.7z"/>
	<path class="st2" d="M860.3,59.2c0.1,5.8,3.8,8.2,8.1,8.2c3.1,0,4.9-0.5,6.6-1.2l0.7,3.1c-1.5,0.7-4.1,1.5-7.9,1.5
		c-7.3,0-11.7-4.8-11.7-12c0-7.2,4.2-12.8,11.1-12.8c7.7,0,9.8,6.8,9.8,11.2c0,0.9-0.1,1.6-0.1,2H860.3z M873,56.1c0-2.7-1.1-7-6-7
		c-4.4,0-6.3,4-6.6,7H873z"/>
	<path class="st2" d="M881.9,65.9c1.3,0.8,3.5,1.7,5.7,1.7c3.1,0,4.6-1.6,4.6-3.5c0-2.1-1.2-3.2-4.4-4.4c-4.3-1.5-6.3-3.9-6.3-6.7
		c0-3.8,3.1-7,8.2-7c2.4,0,4.5,0.7,5.8,1.5l-1.1,3.1c-0.9-0.6-2.6-1.4-4.9-1.4c-2.5,0-4,1.5-4,3.2c0,2,1.4,2.8,4.5,4
		c4.1,1.6,6.2,3.6,6.2,7.2c0,4.2-3.2,7.1-8.9,7.1c-2.6,0-5-0.6-6.7-1.6L881.9,65.9z"/>
	<path class="st2" d="M900.3,67.7c0-1.8,1.2-3.1,2.9-3.1s2.9,1.3,2.9,3.1c0,1.8-1.1,3.1-2.9,3.1C901.5,70.8,900.3,69.5,900.3,67.7z"
		/>
</g>
<g>
</g>
<g>
</g>
<g>
</g>
<g>
</g>
<g>
</g>
<g>
</g>
<g>
</g>
<g>
</g>
<g>
</g>
<g>
</g>
<g>
</g>
<g>
</g>
<g>
</g>
<g>
</g>
<g>
</g>
</svg>
