<?xml version="1.0" encoding="utf-8"?>
<!-- Generator: Adobe Illustrator 22.0.1, SVG Export Plug-In . SVG Version: 6.00 Build 0)  -->
<svg version="1.1" id="Capa_1" xmlns="http://www.w3.org/2000/svg" xmlns:xlink="http://www.w3.org/1999/xlink" x="0px" y="0px"
	 viewBox="0 0 1166.8 298.3" style="enable-background:new 0 0 1166.8 298.3;" xml:space="preserve">
<style type="text/css">
	.st0{fill:#F2F1F3;}
	.st1{fill:none;}
	.st2{fill:#1D1D1B;}
</style>
<rect x="-0.2" y="0.2" class="st0" width="1167.2" height="298"/>
<g>
	<rect x="19.4" y="35.5" class="st1" width="1144.1" height="306.7"/>
	<path class="st2" d="M32.9,55.4v3.2H20.8v-3.2H32.9z"/>
	<path class="st2" d="M54,70.3l-10.8-33h4.6L53,53.5c1.4,4.5,2.6,8.5,3.5,12.3h0.1c0.9-3.8,2.3-8,3.8-12.3L66,37.2h4.6l-11.8,33H54z
		"/>
	<path class="st2" d="M85.5,70.3l-0.3-3H85c-1.3,1.9-3.9,3.5-7.3,3.5c-4.8,0-7.3-3.4-7.3-6.8c0-5.7,5.1-8.9,14.3-8.8v-0.5
		c0-2-0.5-5.5-5.4-5.5c-2.2,0-4.5,0.7-6.2,1.8l-1-2.8c2-1.3,4.8-2.1,7.8-2.1c7.3,0,9,4.9,9,9.7v8.9c0,2.1,0.1,4.1,0.4,5.7H85.5z
		 M84.8,58.2c-4.7-0.1-10,0.7-10,5.3c0,2.8,1.9,4.1,4.1,4.1c3.1,0,5-2,5.7-4c0.1-0.4,0.2-0.9,0.2-1.4V58.2z"/>
	<path class="st2" d="M95.9,35.5h4.3v34.8h-4.3V35.5z"/>
	<path class="st2" d="M129,58.2c0,8.8-6.1,12.6-11.8,12.6c-6.4,0-11.4-4.7-11.4-12.2c0-7.9,5.2-12.6,11.8-12.6
		C124.4,46,129,51,129,58.2z M110.2,58.5c0,5.2,3,9.1,7.2,9.1c4.1,0,7.2-3.9,7.2-9.2c0-4-2-9.1-7.1-9.1S110.2,53.9,110.2,58.5z"/>
	<path class="st2" d="M134.4,53.9c0-2.8,0-5.2-0.2-7.4h3.8l0.1,4.7h0.2c1.1-3.2,3.7-5.2,6.6-5.2c0.5,0,0.8,0,1.2,0.1v4.1
		c-0.4-0.1-0.9-0.1-1.5-0.1c-3,0-5.2,2.3-5.8,5.5c-0.1,0.6-0.2,1.3-0.2,2v12.6h-4.3V53.9z"/>
	<path class="st2" d="M152.3,59.2c0.1,5.8,3.8,8.2,8.1,8.2c3.1,0,4.9-0.5,6.6-1.2l0.7,3.1c-1.5,0.7-4.1,1.5-7.9,1.5
		c-7.3,0-11.7-4.8-11.7-12c0-7.2,4.2-12.8,11.1-12.8c7.7,0,9.8,6.8,9.8,11.2c0,0.9-0.1,1.6-0.1,2H152.3z M165,56.1c0-2.7-1.1-7-6-7
		c-4.4,0-6.3,4-6.6,7H165z"/>
	<path class="st2" d="M173.9,65.9c1.3,0.8,3.5,1.7,5.7,1.7c3.1,0,4.6-1.6,4.6-3.5c0-2.1-1.2-3.2-4.4-4.4c-4.3-1.5-6.3-3.9-6.3-6.7
		c0-3.8,3.1-7,8.2-7c2.4,0,4.5,0.7,5.8,1.5l-1.1,3.1c-0.9-0.6-2.6-1.4-4.9-1.4c-2.5,0-4,1.5-4,3.2c0,2,1.4,2.8,4.5,4
		c4.1,1.6,6.2,3.6,6.2,7.2c0,4.2-3.2,7.1-8.9,7.1c-2.6,0-5-0.6-6.7-1.6L173.9,65.9z"/>
	<path class="st2" d="M192.9,50.5c0-1.8,1.2-3.1,2.9-3.1s2.8,1.3,2.9,3.1c0,1.7-1.1,3-2.9,3C194,53.5,192.9,52.2,192.9,50.5z
		 M192.9,67.8c0-1.8,1.2-3.1,2.9-3.1s2.8,1.3,2.9,3.1c0,1.7-1.1,3-2.9,3C194,70.8,192.9,69.5,192.9,67.8z"/>
	<path class="st2" d="M214.4,54.3c0-3-0.1-5.5-0.2-7.7h3.9l0.2,4.1h0.1c1.8-2.9,4.6-4.6,8.4-4.6c5.7,0,10,4.9,10,12.1
		c0,8.5-5.2,12.7-10.8,12.7c-3.1,0-5.9-1.4-7.3-3.7h-0.1V80h-4.3V54.3z M218.7,60.6c0,0.6,0.1,1.2,0.2,1.8c0.8,3,3.4,5,6.5,5
		c4.6,0,7.2-3.7,7.2-9.2c0-4.8-2.5-8.8-7.1-8.8c-2.9,0-5.7,2.1-6.5,5.3c-0.1,0.5-0.3,1.2-0.3,1.8V60.6z"/>
	<path class="st2" d="M255.4,70.3l-0.3-3h-0.1c-1.3,1.9-3.9,3.5-7.3,3.5c-4.8,0-7.3-3.4-7.3-6.8c0-5.7,5.1-8.9,14.3-8.8v-0.5
		c0-2-0.5-5.5-5.4-5.5c-2.2,0-4.5,0.7-6.2,1.8l-1-2.8c2-1.3,4.8-2.1,7.8-2.1c7.3,0,9,4.9,9,9.7v8.9c0,2.1,0.1,4.1,0.4,5.7H255.4z
		 M254.8,58.2c-4.7-0.1-10,0.7-10,5.3c0,2.8,1.9,4.1,4.1,4.1c3.1,0,5-2,5.7-4c0.1-0.4,0.2-0.9,0.2-1.4V58.2z"/>
	<path class="st2" d="M265.3,65.9c1.3,0.8,3.5,1.7,5.7,1.7c3.1,0,4.6-1.6,4.6-3.5c0-2.1-1.2-3.2-4.4-4.4c-4.3-1.5-6.3-3.9-6.3-6.7
		c0-3.8,3.1-7,8.2-7c2.4,0,4.5,0.7,5.8,1.5l-1.1,3.1c-0.9-0.6-2.6-1.4-4.9-1.4c-2.5,0-4,1.5-4,3.2c0,2,1.4,2.8,4.5,4
		c4.1,1.6,6.2,3.6,6.2,7.2c0,4.2-3.2,7.1-8.9,7.1c-2.6,0-5-0.6-6.7-1.6L265.3,65.9z"/>
	<path class="st2" d="M290.1,39.9c0,1.5-1,2.6-2.7,2.6c-1.5,0-2.6-1.2-2.6-2.6c0-1.5,1.1-2.7,2.7-2.7
		C289.1,37.2,290.1,38.4,290.1,39.9z M285.3,70.3V46.5h4.3v23.7H285.3z"/>
	<path class="st2" d="M318.3,58.2c0,8.8-6.1,12.6-11.8,12.6c-6.4,0-11.4-4.7-11.4-12.2c0-7.9,5.2-12.6,11.8-12.6
		C313.6,46,318.3,51,318.3,58.2z M299.4,58.5c0,5.2,3,9.1,7.2,9.1c4.1,0,7.2-3.9,7.2-9.2c0-4-2-9.1-7.1-9.1
		C301.6,49.2,299.4,53.9,299.4,58.5z M313.1,36.3l-6,7H304l4.3-7H313.1z"/>
	<path class="st2" d="M323.7,53c0-2.5,0-4.5-0.2-6.4h3.8l0.2,3.9h0.1c1.2-2.3,3.9-4.5,7.8-4.5c3.3,0,8.4,2,8.4,10.1v14.2h-4.3V56.6
		c0-3.8-1.4-7-5.5-7c-2.8,0-5,2-5.8,4.4c-0.2,0.5-0.3,1.3-0.3,2v14.3h-4.3V53z"/>
	<path class="st2" d="M348.1,76.3c1.1-2.9,2.4-8.1,2.9-11.7l4.8-0.5c-1.1,4.2-3.3,9.6-4.7,11.9L348.1,76.3z"/>
	<path class="st2" d="M373.8,59.2c0.1,5.8,3.8,8.2,8.1,8.2c3.1,0,4.9-0.5,6.6-1.2l0.7,3.1c-1.5,0.7-4.1,1.5-7.9,1.5
		c-7.3,0-11.7-4.8-11.7-12c0-7.2,4.2-12.8,11.1-12.8c7.7,0,9.8,6.8,9.8,11.2c0,0.9-0.1,1.6-0.1,2H373.8z M386.5,56.1
		c0-2.7-1.1-7-6-7c-4.4,0-6.3,4-6.6,7H386.5z M387.5,36.3l-6,7h-3.1l4.3-7H387.5z"/>
	<path class="st2" d="M401.2,39.7v6.8h6.2v3.3h-6.2v12.8c0,2.9,0.8,4.6,3.2,4.6c1.1,0,2-0.1,2.5-0.3l0.2,3.2
		c-0.8,0.3-2.2,0.6-3.8,0.6c-2,0-3.6-0.6-4.7-1.8c-1.2-1.3-1.7-3.4-1.7-6.2V49.8h-3.7v-3.3h3.7v-5.7L401.2,39.7z"/>
	<path class="st2" d="M417,39.9c0,1.5-1,2.6-2.7,2.6c-1.5,0-2.6-1.2-2.6-2.6c0-1.5,1.1-2.7,2.7-2.7C416,37.2,417,38.4,417,39.9z
		 M412.2,70.3V46.5h4.3v23.7H412.2z"/>
	<path class="st2" d="M440.6,69.4c-1.1,0.6-3.6,1.4-6.8,1.4c-7.2,0-11.8-4.9-11.8-12.1c0-7.3,5-12.6,12.7-12.6c2.5,0,4.8,0.6,6,1.2
		l-1,3.3c-1-0.6-2.6-1.1-5-1.1c-5.4,0-8.4,4-8.4,9c0,5.5,3.5,8.9,8.2,8.9c2.4,0,4.1-0.6,5.3-1.2L440.6,69.4z"/>
	<path class="st2" d="M458.7,70.3l-0.3-3h-0.1c-1.3,1.9-3.9,3.5-7.3,3.5c-4.8,0-7.3-3.4-7.3-6.8c0-5.7,5.1-8.9,14.3-8.8v-0.5
		c0-2-0.5-5.5-5.4-5.5c-2.2,0-4.5,0.7-6.2,1.8l-1-2.8c2-1.3,4.8-2.1,7.8-2.1c7.3,0,9,4.9,9,9.7v8.9c0,2.1,0.1,4.1,0.4,5.7H458.7z
		 M458.1,58.2c-4.7-0.1-10,0.7-10,5.3c0,2.8,1.9,4.1,4.1,4.1c3.1,0,5-2,5.7-4c0.1-0.4,0.2-0.9,0.2-1.4V58.2z"/>
	<path class="st2" d="M466.4,76.3c1.1-2.9,2.4-8.1,2.9-11.7l4.8-0.5c-1.1,4.2-3.3,9.6-4.7,11.9L466.4,76.3z"/>
	<path class="st2" d="M506.7,69.4c-1.1,0.6-3.6,1.4-6.8,1.4c-7.2,0-11.8-4.9-11.8-12.1c0-7.3,5-12.6,12.7-12.6c2.5,0,4.8,0.6,6,1.2
		l-1,3.3c-1-0.6-2.6-1.1-5-1.1c-5.4,0-8.4,4-8.4,9c0,5.5,3.5,8.9,8.2,8.9c2.4,0,4.1-0.6,5.3-1.2L506.7,69.4z"/>
	<path class="st2" d="M532.9,58.2c0,8.8-6.1,12.6-11.8,12.6c-6.4,0-11.4-4.7-11.4-12.2c0-7.9,5.2-12.6,11.8-12.6
		C528.3,46,532.9,51,532.9,58.2z M514.1,58.5c0,5.2,3,9.1,7.2,9.1c4.1,0,7.2-3.9,7.2-9.2c0-4-2-9.1-7.1-9.1S514.1,53.9,514.1,58.5z"
		/>
	<path class="st2" d="M538.3,53c0-2.5,0-4.5-0.2-6.4h3.8l0.2,3.8h0.1c1.3-2.3,3.5-4.4,7.4-4.4c3.2,0,5.7,2,6.7,4.8h0.1
		c0.7-1.3,1.7-2.4,2.6-3.1c1.4-1.1,3-1.7,5.2-1.7c3.1,0,7.8,2.1,7.8,10.3v14H568V56.8c0-4.6-1.7-7.3-5.1-7.3c-2.4,0-4.4,1.8-5.1,3.9
		c-0.2,0.6-0.3,1.4-0.3,2.2v14.6h-4.2V56.1c0-3.8-1.7-6.5-4.9-6.5c-2.7,0-4.7,2.2-5.3,4.3c-0.2,0.6-0.3,1.4-0.3,2.1v14.3h-4.2V53z"
		/>
	<path class="st2" d="M579.2,54.3c0-3-0.1-5.5-0.2-7.7h3.9l0.2,4.1h0.1c1.8-2.9,4.6-4.6,8.4-4.6c5.7,0,10,4.9,10,12.1
		c0,8.5-5.2,12.7-10.8,12.7c-3.1,0-5.9-1.4-7.3-3.7h-0.1V80h-4.3V54.3z M583.4,60.6c0,0.6,0.1,1.2,0.2,1.8c0.8,3,3.4,5,6.5,5
		c4.6,0,7.2-3.7,7.2-9.2c0-4.8-2.5-8.8-7.1-8.8c-2.9,0-5.7,2.1-6.5,5.3c-0.1,0.5-0.3,1.2-0.3,1.8V60.6z"/>
	<path class="st2" d="M607.1,53.9c0-2.8,0-5.2-0.2-7.4h3.8l0.1,4.7h0.2c1.1-3.2,3.7-5.2,6.6-5.2c0.5,0,0.8,0,1.2,0.1v4.1
		c-0.4-0.1-0.9-0.1-1.5-0.1c-3,0-5.2,2.3-5.8,5.5c-0.1,0.6-0.2,1.3-0.2,2v12.6h-4.3V53.9z"/>
	<path class="st2" d="M644,58.2c0,8.8-6.1,12.6-11.8,12.6c-6.4,0-11.4-4.7-11.4-12.2c0-7.9,5.2-12.6,11.8-12.6
		C639.4,46,644,51,644,58.2z M625.2,58.5c0,5.2,3,9.1,7.2,9.1c4.1,0,7.2-3.9,7.2-9.2c0-4-2-9.1-7.1-9.1
		C627.4,49.2,625.2,53.9,625.2,58.5z"/>
	<path class="st2" d="M649.5,53c0-2.5,0-4.5-0.2-6.4h3.8l0.2,3.8h0.1c1.3-2.3,3.5-4.4,7.4-4.4c3.2,0,5.7,2,6.7,4.8h0.1
		c0.7-1.3,1.7-2.4,2.6-3.1c1.4-1.1,3-1.7,5.2-1.7c3.1,0,7.8,2.1,7.8,10.3v14h-4.2V56.8c0-4.6-1.7-7.3-5.1-7.3
		c-2.5,0-4.4,1.8-5.1,3.9c-0.2,0.6-0.3,1.4-0.3,2.2v14.6h-4.2V56.1c0-3.8-1.7-6.5-4.9-6.5c-2.7,0-4.7,2.2-5.3,4.3
		c-0.2,0.6-0.3,1.4-0.3,2.1v14.3h-4.2V53z"/>
	<path class="st2" d="M695.2,39.9c0,1.5-1,2.6-2.7,2.6c-1.5,0-2.6-1.2-2.6-2.6c0-1.5,1.1-2.7,2.7-2.7
		C694.1,37.2,695.2,38.4,695.2,39.9z M690.4,70.3V46.5h4.3v23.7H690.4z"/>
	<path class="st2" d="M701.2,65.9c1.3,0.8,3.5,1.7,5.7,1.7c3.1,0,4.6-1.6,4.6-3.5c0-2.1-1.2-3.2-4.4-4.4c-4.3-1.5-6.3-3.9-6.3-6.7
		c0-3.8,3.1-7,8.2-7c2.4,0,4.5,0.7,5.8,1.5l-1.1,3.1c-0.9-0.6-2.6-1.4-4.8-1.4c-2.5,0-4,1.5-4,3.2c0,2,1.4,2.8,4.5,4
		c4.1,1.6,6.2,3.6,6.2,7.2c0,4.2-3.2,7.1-8.9,7.1c-2.6,0-5-0.6-6.7-1.6L701.2,65.9z"/>
	<path class="st2" d="M742.7,58.2c0,8.8-6.1,12.6-11.8,12.6c-6.4,0-11.4-4.7-11.4-12.2c0-7.9,5.2-12.6,11.8-12.6
		C738.1,46,742.7,51,742.7,58.2z M723.9,58.5c0,5.2,3,9.1,7.2,9.1c4.1,0,7.2-3.9,7.2-9.2c0-4-2-9.1-7.1-9.1S723.9,53.9,723.9,58.5z"
		/>
	<path class="st2" d="M744.2,76.3c1.1-2.9,2.4-8.1,2.9-11.7l4.8-0.5c-1.1,4.2-3.3,9.6-4.7,11.9L744.2,76.3z"/>
	<path class="st2" d="M767.5,54.3c0-3-0.1-5.5-0.2-7.7h3.9l0.2,4.1h0.1c1.8-2.9,4.6-4.6,8.4-4.6c5.7,0,10,4.9,10,12.1
		c0,8.5-5.2,12.7-10.8,12.7c-3.1,0-5.9-1.4-7.3-3.7h-0.1V80h-4.3V54.3z M771.7,60.6c0,0.6,0.1,1.2,0.2,1.8c0.8,3,3.4,5,6.5,5
		c4.6,0,7.2-3.7,7.2-9.2c0-4.8-2.5-8.8-7.1-8.8c-2.9,0-5.7,2.1-6.5,5.3c-0.1,0.5-0.3,1.2-0.3,1.8V60.6z"/>
	<path class="st2" d="M815.2,63.8c0,2.4,0,4.6,0.2,6.5h-3.8l-0.2-3.9h-0.1c-1.1,1.9-3.6,4.4-7.8,4.4c-3.7,0-8.2-2.1-8.2-10.4V46.5
		h4.3v13.1c0,4.5,1.4,7.5,5.3,7.5c2.9,0,4.9-2,5.7-3.9c0.2-0.6,0.4-1.4,0.4-2.2V46.5h4.3V63.8z"/>
	<path class="st2" d="M822.4,53c0-2.5,0-4.5-0.2-6.4h3.8l0.2,3.9h0.1c1.2-2.3,3.9-4.5,7.8-4.5c3.3,0,8.4,2,8.4,10.1v14.2h-4.3V56.6
		c0-3.8-1.4-7-5.5-7c-2.8,0-5,2-5.8,4.4c-0.2,0.5-0.3,1.3-0.3,2v14.3h-4.3V53z"/>
	<path class="st2" d="M854.6,39.7v6.8h6.2v3.3h-6.2v12.8c0,2.9,0.8,4.6,3.2,4.6c1.1,0,2-0.1,2.5-0.3l0.2,3.2
		c-0.8,0.3-2.2,0.6-3.8,0.6c-2,0-3.6-0.6-4.7-1.8c-1.2-1.3-1.7-3.4-1.7-6.2V49.8h-3.7v-3.3h3.7v-5.7L854.6,39.7z"/>
	<path class="st2" d="M885.4,63.8c0,2.4,0,4.6,0.2,6.5h-3.8l-0.2-3.9h-0.1c-1.1,1.9-3.6,4.4-7.8,4.4c-3.7,0-8.2-2.1-8.2-10.4V46.5
		h4.3v13.1c0,4.5,1.4,7.5,5.3,7.5c2.9,0,4.9-2,5.7-3.9c0.2-0.6,0.4-1.4,0.4-2.2V46.5h4.3V63.8z"/>
	<path class="st2" d="M905.7,70.3l-0.3-3h-0.1c-1.3,1.9-3.9,3.5-7.3,3.5c-4.8,0-7.3-3.4-7.3-6.8c0-5.7,5.1-8.9,14.3-8.8v-0.5
		c0-2-0.5-5.5-5.4-5.5c-2.2,0-4.5,0.7-6.2,1.8l-1-2.8c2-1.3,4.8-2.1,7.8-2.1c7.3,0,9,4.9,9,9.7v8.9c0,2.1,0.1,4.1,0.4,5.7H905.7z
		 M905.1,58.2c-4.7-0.1-10,0.7-10,5.3c0,2.8,1.9,4.1,4.1,4.1c3.1,0,5-2,5.7-4c0.1-0.4,0.2-0.9,0.2-1.4V58.2z"/>
	<path class="st2" d="M916.2,35.5h4.3v34.8h-4.3V35.5z"/>
	<path class="st2" d="M932.6,39.9c0,1.5-1,2.6-2.7,2.6c-1.5,0-2.6-1.2-2.6-2.6c0-1.5,1.1-2.7,2.7-2.7
		C931.5,37.2,932.6,38.4,932.6,39.9z M927.8,70.3V46.5h4.3v23.7H927.8z"/>
	<path class="st2" d="M959.7,35.5v28.7c0,2.1,0,4.5,0.2,6.1H956l-0.2-4.1h-0.1c-1.3,2.6-4.2,4.7-8.1,4.7c-5.7,0-10.1-4.9-10.1-12.1
		c0-7.9,4.8-12.7,10.6-12.7c3.6,0,6.1,1.7,7.2,3.6h0.1V35.5H959.7z M955.4,56.2c0-0.5,0-1.3-0.2-1.8c-0.6-2.7-3-5-6.2-5
		c-4.5,0-7.1,3.9-7.1,9.2c0,4.8,2.4,8.8,7,8.8c2.9,0,5.5-1.9,6.3-5.1c0.1-0.6,0.2-1.2,0.2-1.9V56.2z"/>
	<path class="st2" d="M980,70.3l-0.3-3h-0.1c-1.3,1.9-3.9,3.5-7.3,3.5c-4.8,0-7.3-3.4-7.3-6.8c0-5.7,5.1-8.9,14.3-8.8v-0.5
		c0-2-0.5-5.5-5.4-5.5c-2.2,0-4.5,0.7-6.2,1.8l-1-2.8c2-1.3,4.8-2.1,7.8-2.1c7.3,0,9,4.9,9,9.7v8.9c0,2.1,0.1,4.1,0.4,5.7H980z
		 M979.4,58.2c-4.7-0.1-10,0.7-10,5.3c0,2.8,1.9,4.1,4.1,4.1c3.1,0,5-2,5.7-4c0.1-0.4,0.2-0.9,0.2-1.4V58.2z"/>
	<path class="st2" d="M1011,35.5v28.7c0,2.1,0,4.5,0.2,6.1h-3.9l-0.2-4.1h-0.1c-1.3,2.6-4.2,4.7-8.1,4.7c-5.7,0-10.1-4.9-10.1-12.1
		c0-7.9,4.9-12.7,10.6-12.7c3.6,0,6.1,1.7,7.2,3.6h0.1V35.5H1011z M1006.6,56.2c0-0.5,0-1.3-0.2-1.8c-0.6-2.7-3-5-6.2-5
		c-4.5,0-7.1,3.9-7.1,9.2c0,4.8,2.4,8.8,7,8.8c2.9,0,5.5-1.9,6.3-5.1c0.1-0.6,0.2-1.2,0.2-1.9V56.2z"/>
	<path class="st2" d="M1014.8,76.3c1.1-2.9,2.4-8.1,2.9-11.7l4.8-0.5c-1.1,4.2-3.3,9.6-4.7,11.9L1014.8,76.3z"/>
	<path class="st2" d="M22.9,104.9c0-2.8,0-5.2-0.2-7.4h3.8l0.1,4.7h0.2c1.1-3.2,3.7-5.2,6.6-5.2c0.5,0,0.8,0,1.2,0.1v4.1
		c-0.4-0.1-0.9-0.1-1.5-0.1c-3,0-5.2,2.3-5.8,5.5c-0.1,0.6-0.2,1.3-0.2,2v12.6h-4.3V104.9z"/>
	<path class="st2" d="M40.9,110.2c0.1,5.8,3.8,8.2,8.1,8.2c3.1,0,4.9-0.5,6.6-1.2l0.7,3.1c-1.5,0.7-4.1,1.5-7.9,1.5
		c-7.3,0-11.7-4.8-11.7-12c0-7.2,4.2-12.8,11.1-12.8c7.7,0,9.8,6.8,9.8,11.2c0,0.9-0.1,1.6-0.1,2H40.9z M53.5,107.1c0-2.7-1.1-7-6-7
		c-4.4,0-6.3,4-6.6,7H53.5z"/>
	<path class="st2" d="M62.4,116.9c1.3,0.8,3.5,1.7,5.7,1.7c3.1,0,4.6-1.6,4.6-3.5c0-2.1-1.2-3.2-4.4-4.4c-4.3-1.5-6.3-3.9-6.3-6.7
		c0-3.8,3.1-7,8.2-7c2.4,0,4.5,0.7,5.8,1.5l-1.1,3.1c-0.9-0.6-2.6-1.4-4.9-1.4c-2.5,0-4,1.5-4,3.2c0,2,1.4,2.8,4.5,4
		c4.1,1.6,6.2,3.6,6.2,7.2c0,4.2-3.2,7.1-8.9,7.1c-2.6,0-5-0.6-6.7-1.6L62.4,116.9z"/>
	<path class="st2" d="M82.4,105.3c0-3-0.1-5.5-0.2-7.7h3.9l0.2,4.1h0.1c1.8-2.9,4.6-4.6,8.4-4.6c5.7,0,10,4.9,10,12.1
		c0,8.5-5.2,12.7-10.8,12.7c-3.1,0-5.9-1.4-7.3-3.7h-0.1V131h-4.3V105.3z M86.7,111.6c0,0.6,0.1,1.2,0.2,1.8c0.8,3,3.4,5,6.5,5
		c4.6,0,7.2-3.7,7.2-9.2c0-4.8-2.5-8.8-7.1-8.8c-2.9,0-5.7,2.1-6.5,5.3c-0.1,0.5-0.3,1.2-0.3,1.8V111.6z"/>
	<path class="st2" d="M131.8,109.2c0,8.8-6.1,12.6-11.8,12.6c-6.4,0-11.4-4.7-11.4-12.2c0-7.9,5.2-12.6,11.8-12.6
		C127.2,97,131.8,102,131.8,109.2z M112.9,109.5c0,5.2,3,9.1,7.2,9.1c4.1,0,7.2-3.9,7.2-9.2c0-4-2-9.1-7.1-9.1
		C115.2,100.2,112.9,104.9,112.9,109.5z"/>
	<path class="st2" d="M137.2,104c0-2.5,0-4.5-0.2-6.4h3.8l0.2,3.9h0.1c1.2-2.3,3.9-4.5,7.8-4.5c3.3,0,8.4,2,8.4,10.1v14.2h-4.3
		v-13.7c0-3.8-1.4-7-5.5-7c-2.8,0-5,2-5.8,4.4c-0.2,0.5-0.3,1.3-0.3,2v14.3h-4.3V104z"/>
	<path class="st2" d="M163.8,116.9c1.3,0.8,3.5,1.7,5.7,1.7c3.1,0,4.6-1.6,4.6-3.5c0-2.1-1.2-3.2-4.4-4.4c-4.3-1.5-6.3-3.9-6.3-6.7
		c0-3.8,3.1-7,8.2-7c2.4,0,4.5,0.7,5.8,1.5l-1.1,3.1c-0.9-0.6-2.6-1.4-4.9-1.4c-2.5,0-4,1.5-4,3.2c0,2,1.4,2.8,4.5,4
		c4.1,1.6,6.2,3.6,6.2,7.2c0,4.2-3.2,7.1-8.9,7.1c-2.6,0-5-0.6-6.7-1.6L163.8,116.9z"/>
	<path class="st2" d="M196.9,121.3l-0.3-3h-0.1c-1.3,1.9-3.9,3.5-7.3,3.5c-4.8,0-7.3-3.4-7.3-6.8c0-5.7,5.1-8.9,14.3-8.8v-0.5
		c0-2-0.5-5.5-5.4-5.5c-2.2,0-4.5,0.7-6.2,1.8l-1-2.8c2-1.3,4.8-2.1,7.8-2.1c7.3,0,9,4.9,9,9.7v8.9c0,2.1,0.1,4.1,0.4,5.7H196.9z
		 M196.3,109.2c-4.7-0.1-10,0.7-10,5.3c0,2.8,1.9,4.1,4.1,4.1c3.1,0,5-2,5.7-4c0.1-0.4,0.2-0.9,0.2-1.4V109.2z"/>
	<path class="st2" d="M207.2,121.3c0.1-1.6,0.2-4,0.2-6.1V86.5h4.3v14.9h0.1c1.5-2.6,4.3-4.4,8.1-4.4c5.9,0,10,4.9,10,12.1
		c0,8.5-5.3,12.7-10.6,12.7c-3.4,0-6.2-1.3-7.9-4.5h-0.1l-0.2,3.9H207.2z M211.7,111.8c0,0.5,0.1,1.1,0.2,1.6c0.8,3,3.3,5,6.5,5
		c4.5,0,7.2-3.7,7.2-9.1c0-4.8-2.5-8.8-7.1-8.8c-2.9,0-5.7,2-6.6,5.3c-0.1,0.5-0.2,1.1-0.2,1.8V111.8z"/>
	<path class="st2" d="M240.1,90.9c0,1.5-1,2.6-2.7,2.6c-1.5,0-2.6-1.2-2.6-2.6c0-1.5,1.1-2.7,2.7-2.7
		C239.1,88.2,240.1,89.4,240.1,90.9z M235.3,121.3V97.5h4.3v23.7H235.3z"/>
	<path class="st2" d="M246.8,86.5h4.3v34.8h-4.3V86.5z"/>
	<path class="st2" d="M263.1,90.9c0,1.5-1,2.6-2.7,2.6c-1.5,0-2.6-1.2-2.6-2.6c0-1.5,1.1-2.7,2.7-2.7
		C262.1,88.2,263.1,89.4,263.1,90.9z M258.3,121.3V97.5h4.3v23.7H258.3z"/>
	<path class="st2" d="M290.3,86.5v28.7c0,2.1,0,4.5,0.2,6.1h-3.9l-0.2-4.1h-0.1c-1.3,2.6-4.2,4.7-8.1,4.7c-5.7,0-10.1-4.9-10.1-12.1
		c0-7.9,4.9-12.7,10.6-12.7c3.6,0,6.1,1.7,7.2,3.6h0.1V86.5H290.3z M286,107.2c0-0.5,0-1.3-0.2-1.8c-0.6-2.7-3-5-6.2-5
		c-4.5,0-7.1,3.9-7.1,9.2c0,4.8,2.4,8.8,7,8.8c2.9,0,5.5-1.9,6.3-5.1c0.1-0.6,0.2-1.2,0.2-1.9V107.2z"/>
	<path class="st2" d="M310.6,121.3l-0.3-3h-0.1c-1.3,1.9-3.9,3.5-7.3,3.5c-4.8,0-7.3-3.4-7.3-6.8c0-5.7,5.1-8.9,14.3-8.8v-0.5
		c0-2-0.5-5.5-5.4-5.5c-2.2,0-4.5,0.7-6.2,1.8l-1-2.8c2-1.3,4.8-2.1,7.8-2.1c7.3,0,9,4.9,9,9.7v8.9c0,2.1,0.1,4.1,0.4,5.7H310.6z
		 M309.9,109.2c-4.7-0.1-10,0.7-10,5.3c0,2.8,1.9,4.1,4.1,4.1c3.1,0,5-2,5.7-4c0.1-0.4,0.2-0.9,0.2-1.4V109.2z"/>
	<path class="st2" d="M341.5,86.5v28.7c0,2.1,0,4.5,0.2,6.1h-3.9l-0.2-4.1h-0.1c-1.3,2.6-4.2,4.7-8.1,4.7c-5.7,0-10.1-4.9-10.1-12.1
		c0-7.9,4.9-12.7,10.6-12.7c3.6,0,6.1,1.7,7.2,3.6h0.1V86.5H341.5z M337.2,107.2c0-0.5,0-1.3-0.2-1.8c-0.6-2.7-3-5-6.2-5
		c-4.5,0-7.1,3.9-7.1,9.2c0,4.8,2.4,8.8,7,8.8c2.9,0,5.5-1.9,6.3-5.1c0.1-0.6,0.2-1.2,0.2-1.9V107.2z"/>
	<path class="st2" d="M345.4,127.3c1.1-2.9,2.4-8.1,2.9-11.7l4.8-0.5c-1.1,4.2-3.3,9.6-4.7,11.9L345.4,127.3z"/>
	<path class="st2" d="M373.9,90.7v6.8h6.2v3.3h-6.2v12.8c0,2.9,0.8,4.6,3.2,4.6c1.1,0,2-0.1,2.5-0.3l0.2,3.2
		c-0.8,0.3-2.2,0.6-3.8,0.6c-2,0-3.6-0.6-4.7-1.8c-1.2-1.3-1.7-3.4-1.7-6.2v-12.9H366v-3.3h3.7v-5.7L373.9,90.7z"/>
	<path class="st2" d="M384.9,104.9c0-2.8,0-5.2-0.2-7.4h3.8l0.1,4.7h0.2c1.1-3.2,3.7-5.2,6.6-5.2c0.5,0,0.8,0,1.2,0.1v4.1
		c-0.4-0.1-0.9-0.1-1.5-0.1c-3,0-5.2,2.3-5.8,5.5c-0.1,0.6-0.2,1.3-0.2,2v12.6h-4.3V104.9z"/>
	<path class="st2" d="M413.9,121.3l-0.3-3h-0.1c-1.3,1.9-3.9,3.5-7.3,3.5c-4.8,0-7.3-3.4-7.3-6.8c0-5.7,5.1-8.9,14.3-8.8v-0.5
		c0-2-0.5-5.5-5.4-5.5c-2.2,0-4.5,0.7-6.2,1.8l-1-2.8c2-1.3,4.8-2.1,7.8-2.1c7.3,0,9,4.9,9,9.7v8.9c0,2.1,0.1,4.1,0.4,5.7H413.9z
		 M413.2,109.2c-4.7-0.1-10,0.7-10,5.3c0,2.8,1.9,4.1,4.1,4.1c3.1,0,5-2,5.7-4c0.1-0.4,0.2-0.9,0.2-1.4V109.2z"/>
	<path class="st2" d="M424.1,121.3c0.1-1.6,0.2-4,0.2-6.1V86.5h4.3v14.9h0.1c1.5-2.6,4.3-4.4,8.1-4.4c5.9,0,10,4.9,10,12.1
		c0,8.5-5.3,12.7-10.6,12.7c-3.4,0-6.2-1.3-7.9-4.5h-0.1l-0.2,3.9H424.1z M428.6,111.8c0,0.5,0.1,1.1,0.2,1.6c0.8,3,3.3,5,6.5,5
		c4.5,0,7.2-3.7,7.2-9.1c0-4.8-2.4-8.8-7.1-8.8c-2.9,0-5.7,2-6.6,5.3c-0.1,0.5-0.2,1.1-0.2,1.8V111.8z"/>
	<path class="st2" d="M465.3,121.3l-0.3-3h-0.1c-1.3,1.9-3.9,3.5-7.3,3.5c-4.8,0-7.3-3.4-7.3-6.8c0-5.7,5.1-8.9,14.3-8.8v-0.5
		c0-2-0.5-5.5-5.4-5.5c-2.2,0-4.5,0.7-6.2,1.8l-1-2.8c2-1.3,4.8-2.1,7.8-2.1c7.3,0,9,4.9,9,9.7v8.9c0,2.1,0.1,4.1,0.4,5.7H465.3z
		 M464.7,109.2c-4.7-0.1-10,0.7-10,5.3c0,2.8,1.9,4.1,4.1,4.1c3.1,0,5-2,5.7-4c0.1-0.4,0.2-0.9,0.2-1.4V109.2z"/>
	<path class="st2" d="M470.1,128.1c2-0.1,3.7-0.7,4.7-1.8c1.2-1.4,1.6-3.2,1.6-8.9V97.5h4.3v21.5c0,4.6-0.7,7.6-2.8,9.8
		c-1.9,1.9-5,2.7-7.3,2.7L470.1,128.1z M481.2,90.9c0,1.4-1,2.6-2.7,2.6c-1.6,0-2.6-1.2-2.6-2.6c0-1.5,1.1-2.7,2.7-2.7
		C480.1,88.2,481.2,89.4,481.2,90.9z"/>
	<path class="st2" d="M509.2,109.2c0,8.8-6.1,12.6-11.8,12.6c-6.4,0-11.4-4.7-11.4-12.2c0-7.9,5.2-12.6,11.8-12.6
		C504.6,97,509.2,102,509.2,109.2z M490.4,109.5c0,5.2,3,9.1,7.2,9.1c4.1,0,7.2-3.9,7.2-9.2c0-4-2-9.1-7.1-9.1
		S490.4,104.9,490.4,109.5z"/>
	<path class="st2" d="M527.4,110.2c0.1,5.8,3.8,8.2,8.1,8.2c3.1,0,4.9-0.5,6.6-1.2l0.7,3.1c-1.5,0.7-4.1,1.5-7.9,1.5
		c-7.3,0-11.7-4.8-11.7-12c0-7.2,4.2-12.8,11.1-12.8c7.7,0,9.8,6.8,9.8,11.2c0,0.9-0.1,1.6-0.1,2H527.4z M540.1,107.1
		c0-2.7-1.1-7-6-7c-4.4,0-6.3,4-6.6,7H540.1z"/>
	<path class="st2" d="M549.6,104c0-2.5,0-4.5-0.2-6.4h3.8l0.2,3.9h0.1c1.2-2.3,3.9-4.5,7.8-4.5c3.3,0,8.4,2,8.4,10.1v14.2h-4.3
		v-13.7c0-3.8-1.4-7-5.5-7c-2.8,0-5,2-5.8,4.4c-0.2,0.5-0.3,1.3-0.3,2v14.3h-4.3V104z"/>
	<path class="st2" d="M589.6,110.2c0.1,5.8,3.8,8.2,8.1,8.2c3.1,0,4.9-0.5,6.6-1.2l0.7,3.1c-1.5,0.7-4.1,1.5-7.9,1.5
		c-7.3,0-11.7-4.8-11.7-12c0-7.2,4.2-12.8,11.1-12.8c7.7,0,9.8,6.8,9.8,11.2c0,0.9-0.1,1.6-0.1,2H589.6z M602.2,107.1
		c0-2.7-1.1-7-6-7c-4.4,0-6.3,4-6.6,7H602.2z"/>
	<path class="st2" d="M627.9,117.6L627.9,117.6c-1.4,2.4-4,4.2-7.8,4.2c-5.5,0-10-4.8-10-12c0-8.9,5.7-12.8,10.7-12.8
		c3.7,0,6.1,1.8,7.3,4.1h0.1l0.1-3.6h4.1c-0.1,2-0.1,4.1-0.1,6.5V131h-4.3V117.6z M627.9,107.2c0-0.6,0-1.3-0.2-1.8
		c-0.6-2.6-2.9-4.9-6.2-4.9c-4.5,0-7.2,3.8-7.2,9.1c0,4.7,2.3,8.8,7,8.8c2.8,0,5.2-1.7,6.2-4.7c0.2-0.6,0.3-1.4,0.3-2.1V107.2z"/>
	<path class="st2" d="M659.1,114.8c0,2.4,0,4.6,0.2,6.5h-3.8l-0.2-3.9h-0.1c-1.1,1.9-3.6,4.4-7.8,4.4c-3.7,0-8.2-2.1-8.2-10.4V97.5
		h4.3v13.1c0,4.5,1.4,7.5,5.3,7.5c2.9,0,4.9-2,5.7-3.9c0.2-0.6,0.4-1.4,0.4-2.2V97.5h4.3V114.8z"/>
	<path class="st2" d="M671.1,90.9c0,1.5-1,2.6-2.7,2.6c-1.5,0-2.6-1.2-2.6-2.6c0-1.5,1.1-2.7,2.7-2.7
		C670.1,88.2,671.1,89.4,671.1,90.9z M666.3,121.3V97.5h4.3v23.7H666.3z"/>
	<path class="st2" d="M677.8,105.3c0-3-0.1-5.5-0.2-7.7h3.9l0.2,4.1h0.1c1.8-2.9,4.6-4.6,8.4-4.6c5.7,0,10,4.9,10,12.1
		c0,8.5-5.2,12.7-10.8,12.7c-3.1,0-5.9-1.4-7.3-3.7H682V131h-4.3V105.3z M682,111.6c0,0.6,0.1,1.2,0.2,1.8c0.8,3,3.4,5,6.5,5
		c4.6,0,7.2-3.7,7.2-9.2c0-4.8-2.5-8.8-7.1-8.8c-2.9,0-5.7,2.1-6.5,5.3c-0.1,0.5-0.3,1.2-0.3,1.8V111.6z"/>
	<path class="st2" d="M727.1,109.2c0,8.8-6.1,12.6-11.8,12.6c-6.4,0-11.4-4.7-11.4-12.2c0-7.9,5.2-12.6,11.8-12.6
		C722.5,97,727.1,102,727.1,109.2z M708.3,109.5c0,5.2,3,9.1,7.2,9.1c4.1,0,7.2-3.9,7.2-9.2c0-4-2-9.1-7.1-9.1
		S708.3,104.9,708.3,109.5z"/>
	<path class="st2" d="M744.5,97.5l5.2,14c0.5,1.6,1.1,3.4,1.5,4.9h0.1c0.4-1.4,0.9-3.2,1.5-4.9l4.7-13.9h4.6l-6.5,16.9
		c-3.1,8.1-5.2,12.3-8.1,14.8c-2.1,1.9-4.2,2.6-5.3,2.8l-1.1-3.6c1.1-0.3,2.5-1,3.8-2.1c1.2-0.9,2.6-2.6,3.6-4.8
		c0.2-0.4,0.3-0.8,0.3-1s-0.1-0.6-0.3-1.1l-8.8-21.9H744.5z"/>
	<path class="st2" d="M789.5,121.3l-0.3-3H789c-1.3,1.9-3.9,3.5-7.3,3.5c-4.8,0-7.3-3.4-7.3-6.8c0-5.7,5.1-8.9,14.3-8.8v-0.5
		c0-2-0.5-5.5-5.4-5.5c-2.2,0-4.5,0.7-6.2,1.8l-1-2.8c2-1.3,4.8-2.1,7.8-2.1c7.3,0,9,4.9,9,9.7v8.9c0,2.1,0.1,4.1,0.4,5.7H789.5z
		 M788.9,109.2c-4.7-0.1-10,0.7-10,5.3c0,2.8,1.9,4.1,4.1,4.1c3.1,0,5-2,5.7-4c0.1-0.4,0.2-0.9,0.2-1.4V109.2z"/>
	<path class="st2" d="M800,104c0-2.5,0-4.5-0.2-6.4h3.8l0.2,3.8h0.1c1.3-2.3,3.5-4.4,7.4-4.4c3.2,0,5.7,2,6.7,4.8h0.1
		c0.7-1.3,1.7-2.4,2.6-3.1c1.4-1.1,3-1.7,5.2-1.7c3.1,0,7.8,2.1,7.8,10.3v14h-4.2v-13.4c0-4.6-1.7-7.3-5.1-7.3
		c-2.5,0-4.4,1.8-5.1,3.9c-0.2,0.6-0.3,1.4-0.3,2.2v14.6h-4.2v-14.2c0-3.8-1.7-6.5-4.9-6.5c-2.7,0-4.7,2.2-5.3,4.3
		c-0.2,0.6-0.3,1.4-0.3,2.1v14.3H800V104z"/>
	<path class="st2" d="M862.3,109.2c0,8.8-6.1,12.6-11.8,12.6c-6.4,0-11.4-4.7-11.4-12.2c0-7.9,5.2-12.6,11.8-12.6
		C857.7,97,862.3,102,862.3,109.2z M843.5,109.5c0,5.2,3,9.1,7.2,9.1c4.1,0,7.2-3.9,7.2-9.2c0-4-2-9.1-7.1-9.1
		S843.5,104.9,843.5,109.5z"/>
	<path class="st2" d="M867.8,104.9c0-2.8,0-5.2-0.2-7.4h3.8l0.1,4.7h0.2c1.1-3.2,3.7-5.2,6.6-5.2c0.5,0,0.8,0,1.2,0.1v4.1
		c-0.4-0.1-0.9-0.1-1.5-0.1c-3,0-5.2,2.3-5.8,5.5c-0.1,0.6-0.2,1.3-0.2,2v12.6h-4.3V104.9z"/>
	<path class="st2" d="M880.2,118.7c0-1.8,1.2-3.1,2.9-3.1s2.9,1.3,2.9,3.1c0,1.8-1.1,3.1-2.9,3.1
		C881.4,121.8,880.2,120.5,880.2,118.7z"/>
</g>
<g>
</g>
<g>
</g>
<g>
</g>
<g>
</g>
<g>
</g>
<g>
</g>
<g>
</g>
<g>
</g>
<g>
</g>
<g>
</g>
<g>
</g>
<g>
</g>
<g>
</g>
<g>
</g>
<g>
</g>
</svg>
