<?xml version="1.0" encoding="UTF-8" standalone="no"?>
<!-- Generator: Adobe Illustrator 22.0.1, SVG Export Plug-In . SVG Version: 6.00 Build 0)  -->

<svg
   xmlns:dc="http://purl.org/dc/elements/1.1/"
   xmlns:cc="http://creativecommons.org/ns#"
   xmlns:rdf="http://www.w3.org/1999/02/22-rdf-syntax-ns#"
   xmlns:svg="http://www.w3.org/2000/svg"
   xmlns="http://www.w3.org/2000/svg"
   xmlns:sodipodi="http://sodipodi.sourceforge.net/DTD/sodipodi-0.dtd"
   xmlns:inkscape="http://www.inkscape.org/namespaces/inkscape"
   version="1.1"
   id="Capa_1"
   x="0px"
   y="0px"
   viewBox="0 0 612 676"
   xml:space="preserve"
   sodipodi:docname="prueba.svg"
   width="612"
   height="676"
   inkscape:version="0.92.4 (5da689c313, 2019-01-14)"><metadata
   id="metadata408"><rdf:RDF><cc:Work
       rdf:about=""><dc:format>image/svg+xml</dc:format><dc:type
         rdf:resource="http://purl.org/dc/dcmitype/StillImage" /><dc:title></dc:title></cc:Work></rdf:RDF></metadata><defs
   id="defs406" /><sodipodi:namedview
   pagecolor="#ffffff"
   bordercolor="#666666"
   borderopacity="1"
   objecttolerance="10"
   gridtolerance="10"
   guidetolerance="10"
   inkscape:pageopacity="0"
   inkscape:pageshadow="2"
   inkscape:window-width="1920"
   inkscape:window-height="1017"
   id="namedview404"
   showgrid="false"
   fit-margin-top="0"
   fit-margin-left="0"
   fit-margin-right="0"
   fit-margin-bottom="0"
   inkscape:zoom="1.2544379"
   inkscape:cx="305.5"
   inkscape:cy="338"
   inkscape:window-x="-8"
   inkscape:window-y="-8"
   inkscape:window-maximized="1"
   inkscape:current-layer="Capa_1" />
<style
   type="text/css"
   id="style294">
	.st0{fill:#F3F1F3;}
	.st1{fill:url(#SVGID_1_);}
	.st2{fill:#FFFFFF;}
	.st3{fill:#832075;}
</style>
<rect
   x="0"
   class="st0"
   width="612"
   height="676"
   id="rect296"
   y="0"
   style="fill:#f3f1f3" />
<linearGradient
   id="SVGID_1_"
   gradientUnits="userSpaceOnUse"
   x1="-4311.2339"
   y1="5491.0771"
   x2="-4098.1138"
   y2="5491.0771"
   gradientTransform="matrix(0.5805,-0.8143,0.8143,0.5805,-1691.9373,-6427.8921)">
	<stop
   offset="0"
   style="stop-color:#FFFFFF"
   id="stop298" />
	<stop
   offset="8.682953e-02"
   style="stop-color:#FAF7FB"
   id="stop300" />
	<stop
   offset="0.2366"
   style="stop-color:#ECDFEE"
   id="stop302" />
	<stop
   offset="0.4313"
   style="stop-color:#D7B8D7"
   id="stop304" />
	<stop
   offset="0.6635"
   style="stop-color:#BC81B4"
   id="stop306" />
	<stop
   offset="0.9245"
   style="stop-color:#9D3989"
   id="stop308" />
	<stop
   offset="1"
   style="stop-color:#942380"
   id="stop310" />
</linearGradient>
<path
   class="st1"
   d="m 251.5,251.4 c -70.6,-36.1 14.4,-164.8 56.7,-183.8 71,-32 104.6,66.2 120.3,136.1 6.9,31.1 -13,62.2 -44.3,68.2 -33.7,6.4 -80.4,6.2 -132.7,-20.5 z"
   id="path313"
   inkscape:connector-curvature="0"
   style="fill:url(#SVGID_1_)" />
<path
   class="st2"
   d="m 249,377.8 c 11.6,78.4 -142.5,83.9 -182.6,60.6 -67.2,-39.2 -6.9,-123.6 41.1,-177 21.3,-23.7 58.2,-25.5 81.2,-3.5 24.7,23.7 51.7,61.9 60.3,119.9 z"
   id="path315"
   inkscape:connector-curvature="0"
   style="fill:#ffffff" />
<path
   class="st2"
   d="M 554.5,431.3 C 520.7,503 389.3,422.2 369,380.5 334.8,310.6 431.8,273.8 501.3,256 c 30.9,-7.9 62.6,11 69.5,42.1 7.4,33.4 8.7,80.1 -16.3,133.2 z"
   id="path317"
   inkscape:connector-curvature="0"
   style="fill:#ffffff" />
<g
   id="g343"
   transform="translate(-0.5)">
	<path
   class="st2"
   d="m 290.3,164.2 c -2.9,-0.8 -5.6,-1.6 -8.1,-2.4 -0.4,-0.2 -0.9,-0.3 -1.3,-0.3 -5,-0.2 -9.3,-3.9 -9.3,-10.7 0,-6.8 4.1,-11.1 9.8,-11.1 5.7,0 9.5,4.5 9.5,10.7 0,5.4 -2.5,8.9 -6,10.1 v 0.1 c 2.1,0.5 4.4,1 6.2,1.3 z M 288,150.5 c 0,-4.2 -2.2,-8.6 -6.7,-8.6 -4.6,0 -6.9,4.3 -6.8,8.8 0,4.5 2.4,8.5 6.7,8.5 4.4,0 6.8,-3.9 6.8,-8.7 z"
   id="path319"
   inkscape:connector-curvature="0"
   style="fill:#ffffff" />
	<path
   class="st2"
   d="m 307.2,157 c 0,1.6 0,2.9 0.1,4.1 h -2.4 l -0.2,-2.5 h -0.1 c -0.7,1.2 -2.3,2.8 -5,2.8 -2.4,0 -5.2,-1.3 -5.2,-6.6 v -8.9 h 2.8 v 8.4 c 0,2.9 0.9,4.8 3.4,4.8 1.9,0 3.1,-1.3 3.6,-2.5 0.2,-0.4 0.3,-0.9 0.3,-1.4 v -9.3 h 2.8 V 157 Z"
   id="path321"
   inkscape:connector-curvature="0"
   style="fill:#ffffff" />
	<path
   class="st2"
   d="m 314.8,141.7 c 0,0.9 -0.7,1.7 -1.8,1.7 -1,0 -1.7,-0.8 -1.7,-1.7 0,-1 0.7,-1.7 1.7,-1.7 1.2,-0.1 1.8,0.7 1.8,1.7 z m -3,19.4 v -15.2 h 2.8 v 15.2 z"
   id="path323"
   inkscape:connector-curvature="0"
   style="fill:#ffffff" />
	<path
   class="st2"
   d="m 320.6,154 c 0.1,3.7 2.4,5.3 5.2,5.3 2,0 3.2,-0.3 4.2,-0.8 l 0.5,2 c -1,0.4 -2.6,0.9 -5,0.9 -4.7,0 -7.5,-3.1 -7.5,-7.7 0,-4.6 2.7,-8.2 7.1,-8.2 5,0 6.3,4.4 6.3,7.1 0,0.6 -0.1,1 -0.1,1.3 h -10.7 z m 8.1,-1.9 c 0,-1.8 -0.7,-4.5 -3.8,-4.5 -2.8,0 -4,2.6 -4.2,4.5 z m 0.7,-12.7 -3.8,4.5 h -2 l 2.8,-4.5 z"
   id="path325"
   inkscape:connector-curvature="0"
   style="fill:#ffffff" />
	<path
   class="st2"
   d="m 334.8,150 c 0,-1.6 0,-2.9 -0.1,-4.1 h 2.4 l 0.2,2.5 h 0.1 c 0.8,-1.4 2.5,-2.9 5,-2.9 2.1,0 5.4,1.3 5.4,6.5 v 9.1 H 345 v -8.7 c 0,-2.4 -0.9,-4.5 -3.5,-4.5 -1.8,0 -3.2,1.3 -3.7,2.8 -0.1,0.3 -0.2,0.8 -0.2,1.3 v 9.1 h -2.8 z"
   id="path327"
   inkscape:connector-curvature="0"
   style="fill:#ffffff" />
	<path
   class="st2"
   d="m 353.7,154 c 0.1,3.7 2.4,5.3 5.2,5.3 2,0 3.2,-0.3 4.2,-0.8 l 0.5,2 c -1,0.4 -2.6,0.9 -5,0.9 -4.7,0 -7.5,-3.1 -7.5,-7.7 0,-4.6 2.7,-8.2 7.1,-8.2 5,0 6.3,4.4 6.3,7.1 0,0.6 -0.1,1 -0.1,1.3 h -10.7 z m 8.1,-1.9 c 0,-1.8 -0.7,-4.5 -3.8,-4.5 -2.8,0 -4,2.6 -4.2,4.5 z"
   id="path329"
   inkscape:connector-curvature="0"
   style="fill:#ffffff" />
	<path
   class="st2"
   d="m 367.5,158.3 c 0.8,0.5 2.3,1.1 3.6,1.1 2,0 2.9,-1 2.9,-2.3 0,-1.3 -0.8,-2 -2.8,-2.8 -2.7,-1 -4,-2.5 -4,-4.3 0,-2.4 2,-4.5 5.2,-4.5 1.5,0 2.9,0.4 3.7,0.9 l -0.7,2 c -0.6,-0.4 -1.7,-0.9 -3.1,-0.9 -1.6,0 -2.5,0.9 -2.5,2.1 0,1.3 0.9,1.8 2.9,2.6 2.6,1 4,2.3 4,4.6 0,2.7 -2.1,4.5 -5.7,4.5 -1.7,0 -3.2,-0.4 -4.3,-1 z"
   id="path331"
   inkscape:connector-curvature="0"
   style="fill:#ffffff" />
	<path
   class="st2"
   d="m 283.5,195.9 c 0.8,0.5 2.3,1.1 3.6,1.1 2,0 2.9,-1 2.9,-2.3 0,-1.3 -0.8,-2 -2.8,-2.8 -2.7,-1 -4,-2.5 -4,-4.3 0,-2.4 2,-4.5 5.2,-4.5 1.5,0 2.9,0.4 3.7,0.9 l -0.7,2 c -0.6,-0.4 -1.7,-0.9 -3.1,-0.9 -1.6,0 -2.5,0.9 -2.5,2.1 0,1.3 0.9,1.8 2.9,2.6 2.6,1 4,2.3 4,4.6 0,2.7 -2.1,4.5 -5.7,4.5 -1.7,0 -3.2,-0.4 -4.3,-1 z"
   id="path333"
   inkscape:connector-curvature="0"
   style="fill:#ffffff" />
	<path
   class="st2"
   d="m 310,191 c 0,5.6 -3.9,8.1 -7.6,8.1 -4.1,0 -7.3,-3 -7.3,-7.8 0,-5.1 3.3,-8.1 7.5,-8.1 4.5,0 7.4,3.2 7.4,7.8 z m -12,0.2 c 0,3.3 1.9,5.8 4.6,5.8 2.6,0 4.6,-2.5 4.6,-5.9 0,-2.6 -1.3,-5.8 -4.5,-5.8 -3.3,0 -4.7,3 -4.7,5.9 z"
   id="path335"
   inkscape:connector-curvature="0"
   style="fill:#ffffff" />
	<path
   class="st2"
   d="m 313.5,187.7 c 0,-1.6 0,-2.9 -0.1,-4.1 h 2.4 l 0.1,2.4 h 0.1 c 0.8,-1.4 2.3,-2.8 4.8,-2.8 2.1,0 3.6,1.3 4.3,3 h 0.1 c 0.5,-0.8 1.1,-1.5 1.7,-2 0.9,-0.7 1.9,-1.1 3.4,-1.1 2,0 5,1.3 5,6.6 v 8.9 h -2.7 V 190 c 0,-2.9 -1.1,-4.7 -3.3,-4.7 -1.6,0 -2.8,1.2 -3.3,2.5 -0.1,0.4 -0.2,0.9 -0.2,1.4 v 9.4 H 323 v -9.1 c 0,-2.4 -1.1,-4.2 -3.2,-4.2 -1.7,0 -3,1.4 -3.4,2.8 -0.2,0.4 -0.2,0.9 -0.2,1.3 v 9.2 h -2.7 z"
   id="path337"
   inkscape:connector-curvature="0"
   style="fill:#ffffff" />
	<path
   class="st2"
   d="m 353.4,191 c 0,5.6 -3.9,8.1 -7.6,8.1 -4.1,0 -7.3,-3 -7.3,-7.8 0,-5.1 3.3,-8.1 7.5,-8.1 4.4,0 7.4,3.2 7.4,7.8 z m -12.1,0.2 c 0,3.3 1.9,5.8 4.6,5.8 2.6,0 4.6,-2.5 4.6,-5.9 0,-2.6 -1.3,-5.8 -4.5,-5.8 -3.3,0 -4.7,3 -4.7,5.9 z"
   id="path339"
   inkscape:connector-curvature="0"
   style="fill:#ffffff" />
	<path
   class="st2"
   d="m 356.5,195.9 c 0.8,0.5 2.3,1.1 3.6,1.1 2,0 2.9,-1 2.9,-2.3 0,-1.3 -0.8,-2 -2.8,-2.8 -2.7,-1 -4,-2.5 -4,-4.3 0,-2.4 2,-4.5 5.2,-4.5 1.5,0 2.9,0.4 3.7,0.9 l -0.7,2 c -0.6,-0.4 -1.7,-0.9 -3.1,-0.9 -1.6,0 -2.5,0.9 -2.5,2.1 0,1.3 0.9,1.8 2.9,2.6 2.6,1 4,2.3 4,4.6 0,2.7 -2.1,4.5 -5.7,4.5 -1.7,0 -3.2,-0.4 -4.3,-1 z"
   id="path341"
   inkscape:connector-curvature="0"
   style="fill:#ffffff" />
</g>
<g
   id="g357"
   transform="translate(-0.5)">
	<path
   class="st3"
   d="m 434.3,367.9 -10.2,-31.4 h 4.4 l 4.9,15.5 c 1.4,4.2 2.5,8.1 3.4,11.7 h 0.1 c 0.9,-3.6 2.2,-7.6 3.6,-11.7 l 5.3,-15.5 h 4.3 l -11.2,31.4 z"
   id="path345"
   inkscape:connector-curvature="0"
   style="fill:#832075" />
	<path
   class="st3"
   d="m 457.1,339 c 0,1.4 -1,2.5 -2.6,2.5 -1.4,0 -2.5,-1.1 -2.5,-2.5 0,-1.4 1.1,-2.6 2.6,-2.6 1.5,0.1 2.5,1.2 2.5,2.6 z m -4.6,28.9 v -22.5 h 4.1 v 22.5 z"
   id="path347"
   inkscape:connector-curvature="0"
   style="fill:#832075" />
	<path
   class="st3"
   d="m 462.9,363.7 c 1.2,0.8 3.4,1.6 5.4,1.6 3,0 4.4,-1.5 4.4,-3.4 0,-2 -1.2,-3 -4.2,-4.1 -4.1,-1.4 -6,-3.7 -6,-6.4 0,-3.6 2.9,-6.6 7.8,-6.6 2.3,0 4.3,0.7 5.5,1.4 l -1,3 c -0.9,-0.6 -2.5,-1.3 -4.6,-1.3 -2.4,0 -3.8,1.4 -3.8,3.1 0,1.9 1.4,2.7 4.3,3.8 3.9,1.5 5.9,3.4 5.9,6.8 0,4 -3.1,6.8 -8.4,6.8 -2.5,0 -4.7,-0.6 -6.3,-1.5 z"
   id="path349"
   inkscape:connector-curvature="0"
   style="fill:#832075" />
	<path
   class="st3"
   d="m 486.4,339 c 0,1.4 -1,2.5 -2.6,2.5 -1.4,0 -2.5,-1.1 -2.5,-2.5 0,-1.4 1.1,-2.6 2.6,-2.6 1.5,0.1 2.5,1.2 2.5,2.6 z m -4.5,28.9 v -22.5 h 4.1 v 22.5 z"
   id="path351"
   inkscape:connector-curvature="0"
   style="fill:#832075" />
	<path
   class="st3"
   d="m 513.1,356.5 c 0,8.3 -5.8,12 -11.2,12 -6.1,0 -10.8,-4.5 -10.8,-11.6 0,-7.5 4.9,-12 11.2,-12 6.5,0 10.8,4.7 10.8,11.6 z m -17.8,0.2 c 0,4.9 2.8,8.7 6.8,8.7 3.9,0 6.8,-3.7 6.8,-8.8 0,-3.8 -1.9,-8.7 -6.8,-8.7 -4.7,0 -6.8,4.5 -6.8,8.8 z m 12.9,-21 -5.7,6.7 h -2.9 l 4.1,-6.7 z"
   id="path353"
   inkscape:connector-curvature="0"
   style="fill:#832075" />
	<path
   class="st3"
   d="m 518.3,351.5 c 0,-2.3 0,-4.2 -0.2,-6.1 h 3.6 l 0.2,3.7 h 0.1 c 1.1,-2.1 3.7,-4.2 7.4,-4.2 3.1,0 8,1.9 8,9.6 V 368 h -4.1 v -13 c 0,-3.6 -1.4,-6.7 -5.2,-6.7 -2.7,0 -4.8,1.9 -5.5,4.2 -0.2,0.5 -0.3,1.2 -0.3,1.9 v 13.5 h -4.1 v -16.4 z"
   id="path355"
   inkscape:connector-curvature="0"
   style="fill:#832075" />
</g>
<g
   id="g371"
   transform="translate(-0.5)">
	<path
   class="st3"
   d="m 104.7,361.3 c -0.2,-4.4 -0.5,-9.6 -0.5,-13.5 h -0.1 c -1.1,3.7 -2.4,7.6 -4,11.9 l -5.5,15.2 H 91.5 L 86.4,360 c -1.5,-4.4 -2.7,-8.5 -3.6,-12.2 h -0.1 c -0.1,3.9 -0.3,9.2 -0.6,13.9 L 81.3,375 h -3.9 l 2.2,-31.4 h 5.2 l 5.4,15.2 c 1.3,3.9 2.4,7.3 3.2,10.6 h 0.1 c 0.8,-3.2 1.9,-6.6 3.3,-10.6 l 5.6,-15.2 h 5.2 l 2,31.4 h -4 z"
   id="path359"
   inkscape:connector-curvature="0"
   style="fill:#832075" />
	<path
   class="st3"
   d="m 120.7,346.2 c 0,1.4 -1,2.5 -2.6,2.5 -1.4,0 -2.5,-1.1 -2.5,-2.5 0,-1.4 1.1,-2.6 2.6,-2.6 1.5,0 2.5,1.1 2.5,2.6 z m -4.6,28.8 v -22.5 h 4.1 V 375 Z"
   id="path361"
   inkscape:connector-curvature="0"
   style="fill:#832075" />
	<path
   class="st3"
   d="m 126.4,370.9 c 1.2,0.8 3.4,1.6 5.4,1.6 3,0 4.4,-1.5 4.4,-3.4 0,-2 -1.2,-3 -4.2,-4.1 -4.1,-1.4 -6,-3.7 -6,-6.4 0,-3.6 2.9,-6.6 7.8,-6.6 2.3,0 4.3,0.7 5.5,1.4 l -1,3 c -0.9,-0.6 -2.5,-1.3 -4.6,-1.3 -2.4,0 -3.8,1.4 -3.8,3.1 0,1.9 1.4,2.7 4.3,3.8 3.9,1.5 5.9,3.4 5.9,6.8 0,4 -3.1,6.8 -8.4,6.8 -2.5,0 -4.7,-0.6 -6.3,-1.5 z"
   id="path363"
   inkscape:connector-curvature="0"
   style="fill:#832075" />
	<path
   class="st3"
   d="m 150,346.2 c 0,1.4 -1,2.5 -2.6,2.5 -1.4,0 -2.5,-1.1 -2.5,-2.5 0,-1.4 1.1,-2.6 2.6,-2.6 1.5,0 2.5,1.1 2.5,2.6 z m -4.6,28.8 v -22.5 h 4.1 V 375 Z"
   id="path365"
   inkscape:connector-curvature="0"
   style="fill:#832075" />
	<path
   class="st3"
   d="m 176.7,363.6 c 0,8.3 -5.8,12 -11.2,12 -6.1,0 -10.8,-4.5 -10.8,-11.6 0,-7.5 4.9,-12 11.2,-12 6.4,0 10.8,4.7 10.8,11.6 z m -17.9,0.2 c 0,4.9 2.8,8.7 6.8,8.7 3.9,0 6.8,-3.7 6.8,-8.8 0,-3.8 -1.9,-8.7 -6.8,-8.7 -4.9,0 -6.8,4.5 -6.8,8.8 z m 13,-21 -5.7,6.7 h -2.9 l 4.1,-6.7 z"
   id="path367"
   inkscape:connector-curvature="0"
   style="fill:#832075" />
	<path
   class="st3"
   d="m 181.9,358.6 c 0,-2.3 0,-4.2 -0.2,-6.1 h 3.6 l 0.2,3.7 h 0.1 c 1.1,-2.1 3.7,-4.2 7.4,-4.2 3.1,0 8,1.9 8,9.6 V 375 h -4 v -13 c 0,-3.6 -1.4,-6.7 -5.2,-6.7 -2.7,0 -4.8,1.9 -5.5,4.2 -0.2,0.5 -0.3,1.2 -0.3,1.9 V 375 h -4.1 z"
   id="path369"
   inkscape:connector-curvature="0"
   style="fill:#832075" />
</g>
<path
   class="st2"
   d="m 421,535.5 c 11.6,78.4 -142.5,83.9 -182.6,60.6 -67.2,-39.2 -6.9,-123.6 41.1,-177 21.3,-23.7 58.2,-25.5 81.2,-3.5 24.7,23.6 51.7,61.8 60.3,119.9 z"
   id="path373"
   inkscape:connector-curvature="0"
   style="fill:#ffffff" />
<g
   id="g389"
   transform="translate(-0.5)">
	<path
   class="st3"
   d="m 257.1,532.6 -10.2,-31.4 h 4.4 l 4.9,15.5 c 1.4,4.2 2.5,8.1 3.4,11.7 h 0.1 c 0.9,-3.6 2.2,-7.6 3.6,-11.7 l 5.3,-15.5 h 4.3 l -11.2,31.4 z"
   id="path375"
   inkscape:connector-curvature="0"
   style="fill:#832075" />
	<path
   class="st3"
   d="m 287,532.6 -0.3,-2.8 h -0.1 c -1.3,1.8 -3.7,3.4 -6.9,3.4 -4.6,0 -6.9,-3.2 -6.9,-6.5 0,-5.4 4.8,-8.4 13.5,-8.4 v -0.5 c 0,-1.9 -0.5,-5.2 -5.1,-5.2 -2.1,0 -4.3,0.7 -5.9,1.7 l -0.9,-2.7 c 1.9,-1.2 4.6,-2 7.4,-2 6.9,0 8.6,4.7 8.6,9.2 v 8.4 c 0,2 0.1,3.9 0.4,5.4 z m -0.6,-11.5 c -4.5,-0.1 -9.5,0.7 -9.5,5.1 0,2.7 1.8,3.9 3.9,3.9 2.9,0 4.8,-1.9 5.4,-3.8 0.1,-0.4 0.2,-0.9 0.2,-1.3 z"
   id="path377"
   inkscape:connector-curvature="0"
   style="fill:#832075" />
	<path
   class="st3"
   d="m 297,499.6 h 4.1 v 33.1 H 297 Z"
   id="path379"
   inkscape:connector-curvature="0"
   style="fill:#832075" />
	<path
   class="st3"
   d="m 328.4,521.2 c 0,8.3 -5.8,12 -11.2,12 -6.1,0 -10.8,-4.5 -10.8,-11.6 0,-7.5 4.9,-12 11.2,-12 6.4,0 10.8,4.7 10.8,11.6 z m -17.9,0.2 c 0,4.9 2.8,8.7 6.8,8.7 3.9,0 6.8,-3.7 6.8,-8.8 0,-3.8 -1.9,-8.7 -6.8,-8.7 -4.7,0.1 -6.8,4.5 -6.8,8.8 z"
   id="path381"
   inkscape:connector-curvature="0"
   style="fill:#832075" />
	<path
   class="st3"
   d="m 333.5,517.1 c 0,-2.7 0,-4.9 -0.2,-7 h 3.6 l 0.1,4.4 h 0.2 c 1,-3 3.5,-4.9 6.2,-4.9 0.5,0 0.8,0 1.2,0.1 v 3.9 c -0.4,-0.1 -0.8,-0.1 -1.4,-0.1 -2.9,0 -4.9,2.2 -5.5,5.3 -0.1,0.6 -0.2,1.2 -0.2,1.9 v 12 h -4.1 v -15.6 z"
   id="path383"
   inkscape:connector-curvature="0"
   style="fill:#832075" />
	<path
   class="st3"
   d="m 350.6,522.1 c 0.1,5.5 3.6,7.8 7.7,7.8 2.9,0 4.7,-0.5 6.2,-1.2 l 0.7,2.9 c -1.4,0.7 -3.9,1.4 -7.5,1.4 -6.9,0 -11.1,-4.6 -11.1,-11.4 0,-6.8 4,-12.2 10.6,-12.2 7.4,0 9.3,6.5 9.3,10.6 0,0.8 -0.1,1.5 -0.1,1.9 h -15.8 z m 12,-2.9 c 0,-2.6 -1.1,-6.7 -5.7,-6.7 -4.1,0 -6,3.8 -6.3,6.7 z"
   id="path385"
   inkscape:connector-curvature="0"
   style="fill:#832075" />
	<path
   class="st3"
   d="m 371,528.5 c 1.2,0.8 3.4,1.6 5.4,1.6 3,0 4.4,-1.5 4.4,-3.4 0,-2 -1.2,-3 -4.2,-4.1 -4.1,-1.4 -6,-3.7 -6,-6.4 0,-3.6 2.9,-6.6 7.8,-6.6 2.3,0 4.3,0.7 5.5,1.4 l -1,3 c -0.9,-0.6 -2.5,-1.3 -4.6,-1.3 -2.4,0 -3.8,1.4 -3.8,3.1 0,1.9 1.4,2.7 4.3,3.8 3.9,1.5 5.9,3.4 5.9,6.8 0,4 -3.1,6.8 -8.4,6.8 -2.5,0 -4.7,-0.6 -6.3,-1.5 z"
   id="path387"
   inkscape:connector-curvature="0"
   style="fill:#832075" />
</g>
<g
   id="g391"
   transform="translate(-0.5)">
</g>
<g
   id="g393"
   transform="translate(-0.5)">
</g>
<g
   id="g395"
   transform="translate(-0.5)">
</g>
<g
   id="g397"
   transform="translate(-0.5)">
</g>
<g
   id="g399"
   transform="translate(-0.5)">
</g>
<g
   id="g401"
   transform="translate(-0.5)">
</g>
<rect
   style="fill:#ff5599;fill-opacity:0.94895636;stroke-width:1.35445237"
   id="rect410"
   width="137.1132"
   height="124.35849"
   x="259.37738"
   y="122.76415"
   ry="1.8030571" /><rect
   style="fill:#ff5599;fill-opacity:0.94895636;stroke-width:1.20223641"
   id="rect412"
   width="163.41982"
   height="94.863197"
   x="62.476414"
   y="326.83963"
   ry="1.4604858" /><rect
   style="fill:#ff5599;fill-opacity:0.94895636;stroke-width:1.19106424"
   id="rect414"
   width="164.21698"
   height="94.863213"
   x="391.70752"
   y="305.31604"
   ry="1.4756992" /><rect
   style="fill:#ff5599;fill-opacity:0.94895636;stroke-width:1.07617271"
   id="rect416"
   width="158.63681"
   height="91.67453"
   x="237.85378"
   y="484.67929"
   ry="1.4411073" /></svg>